<svg width="961" height="541" viewBox="0 0 961 541" fill="none" xmlns="http://www.w3.org/2000/svg">
  <g clip-path="url(#clip0_170_560)">
    <rect width="961" height="541" fill="#B9B9B9" />
    <rect width="480" height="270" fill="white" />
    <path fill-rule="evenodd" clip-rule="evenodd"
      d="M245.695 78.8621C242.278 76.3793 237.651 76.3793 234.233 78.8621L183.52 115.708C180.103 118.19 178.673 122.591 179.978 126.608L199.349 186.226C200.654 190.243 204.398 192.963 208.621 192.963H271.307C275.531 192.963 279.274 190.243 280.58 186.226L299.95 126.608C301.256 122.591 299.826 118.19 296.409 115.708L245.695 78.8621ZM201.835 145.073C201.835 131.538 209.078 119.671 219.947 113.043L227.585 135.448H252.585L260.18 113.17C270.934 119.822 278.085 131.624 278.085 145.073C278.085 165.853 261.016 182.698 239.96 182.698C218.904 182.698 201.835 165.853 201.835 145.073Z"
      fill="#CB5942" />
    <path
      d="M234.094 100.948L239.387 106.241C239.777 106.632 240.41 106.632 240.801 106.241L246.094 100.948"
      stroke="black" stroke-width="7" stroke-linecap="round" />
    <mask id="path-3-inside-1_170_560" fill="white">
      <path
        d="M231.956 150.448C232.584 150.448 233.103 149.936 233.008 149.315C232.917 148.72 232.754 148.137 232.523 147.578C232.146 146.668 231.593 145.841 230.897 145.145C230.201 144.449 229.374 143.896 228.464 143.519C227.554 143.142 226.579 142.948 225.594 142.948C224.609 142.948 223.634 143.142 222.724 143.519C221.814 143.896 220.987 144.449 220.29 145.145C219.594 145.841 219.042 146.668 218.665 147.578C218.433 148.137 218.271 148.72 218.18 149.315C218.085 149.936 218.603 150.448 219.231 150.448V150.448C219.86 150.448 220.357 149.933 220.492 149.32C220.558 149.023 220.65 148.731 220.767 148.449C221.029 147.815 221.414 147.239 221.899 146.754C222.384 146.269 222.96 145.884 223.594 145.621C224.228 145.359 224.908 145.223 225.594 145.223C226.28 145.223 226.959 145.359 227.593 145.621C228.227 145.884 228.803 146.269 229.288 146.754C229.773 147.239 230.158 147.815 230.421 148.449C230.538 148.731 230.629 149.023 230.695 149.32C230.831 149.933 231.328 150.448 231.956 150.448V150.448Z" />
    </mask>
    <path
      d="M231.956 150.448C232.584 150.448 233.103 149.936 233.008 149.315C232.917 148.72 232.754 148.137 232.523 147.578C232.146 146.668 231.593 145.841 230.897 145.145C230.201 144.449 229.374 143.896 228.464 143.519C227.554 143.142 226.579 142.948 225.594 142.948C224.609 142.948 223.634 143.142 222.724 143.519C221.814 143.896 220.987 144.449 220.29 145.145C219.594 145.841 219.042 146.668 218.665 147.578C218.433 148.137 218.271 148.72 218.18 149.315C218.085 149.936 218.603 150.448 219.231 150.448V150.448C219.86 150.448 220.357 149.933 220.492 149.32C220.558 149.023 220.65 148.731 220.767 148.449C221.029 147.815 221.414 147.239 221.899 146.754C222.384 146.269 222.96 145.884 223.594 145.621C224.228 145.359 224.908 145.223 225.594 145.223C226.28 145.223 226.959 145.359 227.593 145.621C228.227 145.884 228.803 146.269 229.288 146.754C229.773 147.239 230.158 147.815 230.421 148.449C230.538 148.731 230.629 149.023 230.695 149.32C230.831 149.933 231.328 150.448 231.956 150.448V150.448Z"
      fill="black" stroke="black" stroke-width="0.5" mask="url(#path-3-inside-1_170_560)" />
    <mask id="path-4-inside-2_170_560" fill="white">
      <path
        d="M260.956 150.448C261.584 150.448 262.103 149.936 262.008 149.315C261.917 148.72 261.754 148.137 261.523 147.578C261.146 146.668 260.593 145.841 259.897 145.145C259.201 144.449 258.374 143.896 257.464 143.519C256.554 143.142 255.579 142.948 254.594 142.948C253.609 142.948 252.634 143.142 251.724 143.519C250.814 143.896 249.987 144.449 249.29 145.145C248.594 145.841 248.042 146.668 247.665 147.578C247.433 148.137 247.271 148.72 247.18 149.315C247.085 149.936 247.603 150.448 248.231 150.448V150.448C248.86 150.448 249.357 149.933 249.492 149.32C249.558 149.023 249.65 148.731 249.767 148.449C250.029 147.815 250.414 147.239 250.899 146.754C251.384 146.269 251.96 145.884 252.594 145.621C253.228 145.359 253.908 145.223 254.594 145.223C255.28 145.223 255.959 145.359 256.593 145.621C257.227 145.884 257.803 146.269 258.288 146.754C258.773 147.239 259.158 147.815 259.421 148.449C259.538 148.731 259.629 149.023 259.695 149.32C259.831 149.933 260.328 150.448 260.956 150.448V150.448Z" />
    </mask>
    <path
      d="M260.956 150.448C261.584 150.448 262.103 149.936 262.008 149.315C261.917 148.72 261.754 148.137 261.523 147.578C261.146 146.668 260.593 145.841 259.897 145.145C259.201 144.449 258.374 143.896 257.464 143.519C256.554 143.142 255.579 142.948 254.594 142.948C253.609 142.948 252.634 143.142 251.724 143.519C250.814 143.896 249.987 144.449 249.29 145.145C248.594 145.841 248.042 146.668 247.665 147.578C247.433 148.137 247.271 148.72 247.18 149.315C247.085 149.936 247.603 150.448 248.231 150.448V150.448C248.86 150.448 249.357 149.933 249.492 149.32C249.558 149.023 249.65 148.731 249.767 148.449C250.029 147.815 250.414 147.239 250.899 146.754C251.384 146.269 251.96 145.884 252.594 145.621C253.228 145.359 253.908 145.223 254.594 145.223C255.28 145.223 255.959 145.359 256.593 145.621C257.227 145.884 257.803 146.269 258.288 146.754C258.773 147.239 259.158 147.815 259.421 148.449C259.538 148.731 259.629 149.023 259.695 149.32C259.831 149.933 260.328 150.448 260.956 150.448V150.448Z"
      fill="black" stroke="black" stroke-width="0.5" mask="url(#path-4-inside-2_170_560)" />
    <path
      d="M239.014 164.567L235.764 161.317C235.213 160.766 235.603 159.823 236.382 159.823H243.804C244.584 159.823 244.974 160.766 244.423 161.317L241.173 164.567L241.069 164.671C240.764 164.975 240.593 165.389 240.593 165.82V167.327C240.593 167.758 240.764 168.171 241.069 168.476L241.172 168.579L244.313 171.825C244.577 172.099 244.57 172.534 244.296 172.799C244.025 173.061 243.593 173.055 243.328 172.786L241.251 170.676C240.615 170.03 239.572 170.03 238.935 170.676L236.855 172.79C236.586 173.063 236.15 173.08 235.861 172.827C235.545 172.551 235.529 172.065 235.825 171.768L239.014 168.58L239.014 168.58L239.117 168.476C239.422 168.171 239.593 167.758 239.593 167.327V165.82C239.593 165.389 239.422 164.975 239.117 164.671L239.014 164.567Z"
      fill="black" stroke="black" stroke-width="0.25" />
    <path
      d="M19.7312 52H12.9755L23.2692 22.1818H31.3935L41.6726 52H34.9169L27.4478 28.9957H27.2148L19.7312 52ZM19.3089 40.2795H35.2663V45.2006H19.3089V40.2795Z"
      fill="black" />
    <rect width="480" height="270" transform="translate(481)" fill="white" />
    <path fill-rule="evenodd" clip-rule="evenodd"
      d="M726.695 78.8621C723.278 76.3793 718.651 76.3793 715.233 78.8621L664.52 115.708C661.103 118.19 659.673 122.591 660.978 126.608L680.349 186.226C681.654 190.243 685.398 192.963 689.621 192.963H752.307C756.531 192.963 760.274 190.243 761.58 186.226L780.95 126.608C782.256 122.591 780.826 118.19 777.409 115.708L726.695 78.8621ZM682.835 145.073C682.835 131.538 690.078 119.671 700.947 113.043L708.585 135.448H733.585L741.18 113.17C751.934 119.822 759.085 131.624 759.085 145.073C759.085 165.853 742.016 182.698 720.96 182.698C699.904 182.698 682.835 165.853 682.835 145.073Z"
      fill="#72CB42" />
    <path
      d="M715.094 100.948L720.387 106.241C720.777 106.632 721.41 106.632 721.801 106.241L727.094 100.948"
      stroke="black" stroke-width="7" stroke-linecap="round" />
    <mask id="path-9-inside-3_170_560" fill="white">
      <path
        d="M712.956 150.448C713.584 150.448 714.103 149.936 714.008 149.315C713.917 148.72 713.754 148.137 713.523 147.578C713.146 146.668 712.593 145.841 711.897 145.145C711.201 144.449 710.374 143.896 709.464 143.519C708.554 143.142 707.579 142.948 706.594 142.948C705.609 142.948 704.634 143.142 703.724 143.519C702.814 143.896 701.987 144.449 701.29 145.145C700.594 145.841 700.042 146.668 699.665 147.578C699.433 148.137 699.271 148.72 699.18 149.315C699.085 149.936 699.603 150.448 700.231 150.448V150.448C700.86 150.448 701.357 149.933 701.492 149.32C701.558 149.023 701.65 148.731 701.767 148.449C702.029 147.815 702.414 147.239 702.899 146.754C703.384 146.269 703.96 145.884 704.594 145.621C705.228 145.359 705.908 145.223 706.594 145.223C707.28 145.223 707.959 145.359 708.593 145.621C709.227 145.884 709.803 146.269 710.288 146.754C710.773 147.239 711.158 147.815 711.421 148.449C711.538 148.731 711.629 149.023 711.695 149.32C711.831 149.933 712.328 150.448 712.956 150.448V150.448Z" />
    </mask>
    <path
      d="M712.956 150.448C713.584 150.448 714.103 149.936 714.008 149.315C713.917 148.72 713.754 148.137 713.523 147.578C713.146 146.668 712.593 145.841 711.897 145.145C711.201 144.449 710.374 143.896 709.464 143.519C708.554 143.142 707.579 142.948 706.594 142.948C705.609 142.948 704.634 143.142 703.724 143.519C702.814 143.896 701.987 144.449 701.29 145.145C700.594 145.841 700.042 146.668 699.665 147.578C699.433 148.137 699.271 148.72 699.18 149.315C699.085 149.936 699.603 150.448 700.231 150.448V150.448C700.86 150.448 701.357 149.933 701.492 149.32C701.558 149.023 701.65 148.731 701.767 148.449C702.029 147.815 702.414 147.239 702.899 146.754C703.384 146.269 703.96 145.884 704.594 145.621C705.228 145.359 705.908 145.223 706.594 145.223C707.28 145.223 707.959 145.359 708.593 145.621C709.227 145.884 709.803 146.269 710.288 146.754C710.773 147.239 711.158 147.815 711.421 148.449C711.538 148.731 711.629 149.023 711.695 149.32C711.831 149.933 712.328 150.448 712.956 150.448V150.448Z"
      fill="black" stroke="black" stroke-width="0.5" mask="url(#path-9-inside-3_170_560)" />
    <mask id="path-10-inside-4_170_560" fill="white">
      <path
        d="M741.956 150.448C742.584 150.448 743.103 149.936 743.008 149.315C742.917 148.72 742.754 148.137 742.523 147.578C742.146 146.668 741.593 145.841 740.897 145.145C740.201 144.449 739.374 143.896 738.464 143.519C737.554 143.142 736.579 142.948 735.594 142.948C734.609 142.948 733.634 143.142 732.724 143.519C731.814 143.896 730.987 144.449 730.29 145.145C729.594 145.841 729.042 146.668 728.665 147.578C728.433 148.137 728.271 148.72 728.18 149.315C728.085 149.936 728.603 150.448 729.231 150.448V150.448C729.86 150.448 730.357 149.933 730.492 149.32C730.558 149.023 730.65 148.731 730.767 148.449C731.029 147.815 731.414 147.239 731.899 146.754C732.384 146.269 732.96 145.884 733.594 145.621C734.228 145.359 734.908 145.223 735.594 145.223C736.28 145.223 736.959 145.359 737.593 145.621C738.227 145.884 738.803 146.269 739.288 146.754C739.773 147.239 740.158 147.815 740.421 148.449C740.538 148.731 740.629 149.023 740.695 149.32C740.831 149.933 741.328 150.448 741.956 150.448V150.448Z" />
    </mask>
    <path
      d="M741.956 150.448C742.584 150.448 743.103 149.936 743.008 149.315C742.917 148.72 742.754 148.137 742.523 147.578C742.146 146.668 741.593 145.841 740.897 145.145C740.201 144.449 739.374 143.896 738.464 143.519C737.554 143.142 736.579 142.948 735.594 142.948C734.609 142.948 733.634 143.142 732.724 143.519C731.814 143.896 730.987 144.449 730.29 145.145C729.594 145.841 729.042 146.668 728.665 147.578C728.433 148.137 728.271 148.72 728.18 149.315C728.085 149.936 728.603 150.448 729.231 150.448V150.448C729.86 150.448 730.357 149.933 730.492 149.32C730.558 149.023 730.65 148.731 730.767 148.449C731.029 147.815 731.414 147.239 731.899 146.754C732.384 146.269 732.96 145.884 733.594 145.621C734.228 145.359 734.908 145.223 735.594 145.223C736.28 145.223 736.959 145.359 737.593 145.621C738.227 145.884 738.803 146.269 739.288 146.754C739.773 147.239 740.158 147.815 740.421 148.449C740.538 148.731 740.629 149.023 740.695 149.32C740.831 149.933 741.328 150.448 741.956 150.448V150.448Z"
      fill="black" stroke="black" stroke-width="0.5" mask="url(#path-10-inside-4_170_560)" />
    <path
      d="M720.014 164.567L716.764 161.317C716.213 160.766 716.603 159.823 717.382 159.823H724.804C725.584 159.823 725.974 160.766 725.423 161.317L722.173 164.567L722.069 164.671C721.764 164.975 721.593 165.389 721.593 165.82V167.327C721.593 167.758 721.764 168.171 722.069 168.476L722.172 168.579L725.313 171.825C725.577 172.099 725.57 172.534 725.296 172.799C725.025 173.061 724.593 173.055 724.328 172.786L722.251 170.676C721.615 170.03 720.572 170.03 719.935 170.676L717.855 172.79C717.586 173.063 717.15 173.08 716.861 172.827C716.545 172.551 716.529 172.065 716.825 171.768L720.014 168.58L720.014 168.58L720.117 168.476C720.422 168.171 720.593 167.758 720.593 167.327V165.82C720.593 165.389 720.422 164.975 720.117 164.671L720.014 164.567Z"
      fill="black" stroke="black" stroke-width="0.25" />
    <path
      d="M497.092 52V22.1818H509.031C511.224 22.1818 513.054 22.507 514.52 23.1573C515.985 23.8076 517.087 24.7103 517.825 25.8654C518.562 27.0108 518.931 28.3308 518.931 29.8256C518.931 30.9904 518.698 32.0144 518.232 32.8977C517.766 33.7713 517.126 34.4896 516.31 35.0526C515.505 35.6058 514.583 35.9989 513.544 36.2319V36.5231C514.68 36.5716 515.743 36.8919 516.733 37.484C517.732 38.0761 518.543 38.906 519.164 39.9737C519.785 41.0317 520.096 42.2936 520.096 43.7592C520.096 45.3414 519.703 46.7537 518.917 47.9961C518.14 49.2288 516.99 50.2043 515.466 50.9226C513.942 51.6409 512.064 52 509.831 52H497.092ZM503.396 46.8459H508.536C510.292 46.8459 511.574 46.511 512.379 45.8413C513.185 45.1618 513.588 44.2591 513.588 43.1332C513.588 42.3081 513.389 41.5801 512.991 40.9492C512.593 40.3183 512.025 39.8233 511.287 39.4641C510.559 39.105 509.691 38.9254 508.681 38.9254H503.396V46.8459ZM503.396 34.6594H508.07C508.933 34.6594 509.7 34.509 510.37 34.2081C511.049 33.8975 511.583 33.4607 511.972 32.8977C512.37 32.3348 512.569 31.6602 512.569 30.8739C512.569 29.7965 512.185 28.9278 511.418 28.2678C510.661 27.6077 509.584 27.2777 508.186 27.2777H503.396V34.6594Z"
      fill="black" />
    <rect width="480" height="270" transform="translate(0 271)" fill="white" />
    <path
      d="M40.9009 303.621H34.5238C34.4073 302.796 34.1695 302.063 33.8104 301.423C33.4512 300.772 32.9902 300.219 32.4272 299.763C31.8642 299.307 31.2139 298.957 30.4762 298.714C29.7482 298.472 28.9571 298.35 28.103 298.35C26.5597 298.35 25.2153 298.734 24.07 299.501C22.9246 300.258 22.0365 301.364 21.4055 302.82C20.7746 304.267 20.4592 306.023 20.4592 308.091C20.4592 310.217 20.7746 312.003 21.4055 313.449C22.0462 314.895 22.9392 315.987 24.0845 316.725C25.2299 317.462 26.5548 317.831 28.0593 317.831C28.9038 317.831 29.6851 317.72 30.4034 317.496C31.1314 317.273 31.7769 316.948 32.3398 316.521C32.9028 316.084 33.3687 315.555 33.7376 314.934C34.1161 314.313 34.3782 313.604 34.5238 312.808L40.9009 312.837C40.7359 314.206 40.3234 315.526 39.6634 316.798C39.013 318.059 38.1346 319.19 37.0281 320.19C35.9312 321.18 34.6209 321.966 33.0969 322.549C31.5827 323.121 29.8696 323.408 27.9574 323.408C25.2978 323.408 22.9197 322.806 20.8232 321.602C18.7363 320.399 17.0862 318.656 15.8729 316.375C14.6693 314.094 14.0675 311.333 14.0675 308.091C14.0675 304.839 14.679 302.073 15.902 299.792C17.125 297.511 18.7848 295.773 20.8814 294.58C22.978 293.376 25.3366 292.774 27.9574 292.774C29.6851 292.774 31.2867 293.017 32.7621 293.502C34.2472 293.987 35.5624 294.696 36.7077 295.628C37.8531 296.55 38.7849 297.681 39.5032 299.02C40.2312 300.36 40.6971 301.893 40.9009 303.621Z"
      fill="black" />
    <path fill-rule="evenodd" clip-rule="evenodd"
      d="M245.695 349.862C242.278 347.379 237.651 347.379 234.233 349.862L183.52 386.708C180.103 389.19 178.673 393.591 179.978 397.608L199.349 457.226C200.654 461.243 204.398 463.963 208.621 463.963H271.307C275.531 463.963 279.274 461.243 280.58 457.226L299.95 397.608C301.256 393.591 299.826 389.19 296.409 386.708L245.695 349.862ZM201.835 416.073C201.835 402.538 209.078 390.671 219.947 384.043L227.585 406.448H252.585L260.18 384.17C270.934 390.822 278.085 402.624 278.085 416.073C278.085 436.853 261.016 453.698 239.96 453.698C218.904 453.698 201.835 436.853 201.835 416.073Z"
      fill="#4262CB" />
    <path
      d="M234.094 371.948L239.387 377.241C239.777 377.632 240.41 377.632 240.801 377.241L246.094 371.948"
      stroke="black" stroke-width="7" stroke-linecap="round" />
    <mask id="path-16-inside-5_170_560" fill="white">
      <path
        d="M231.956 421.448C232.584 421.448 233.103 420.936 233.008 420.315C232.917 419.72 232.754 419.137 232.523 418.578C232.146 417.668 231.593 416.841 230.897 416.145C230.201 415.449 229.374 414.896 228.464 414.519C227.554 414.142 226.579 413.948 225.594 413.948C224.609 413.948 223.634 414.142 222.724 414.519C221.814 414.896 220.987 415.449 220.29 416.145C219.594 416.841 219.042 417.668 218.665 418.578C218.433 419.137 218.271 419.72 218.18 420.315C218.085 420.936 218.603 421.448 219.231 421.448V421.448C219.86 421.448 220.357 420.933 220.492 420.32C220.558 420.023 220.65 419.731 220.767 419.449C221.029 418.815 221.414 418.239 221.899 417.754C222.384 417.269 222.96 416.884 223.594 416.621C224.228 416.359 224.908 416.223 225.594 416.223C226.28 416.223 226.959 416.359 227.593 416.621C228.227 416.884 228.803 417.269 229.288 417.754C229.773 418.239 230.158 418.815 230.421 419.449C230.538 419.731 230.629 420.023 230.695 420.32C230.831 420.933 231.328 421.448 231.956 421.448V421.448Z" />
    </mask>
    <path
      d="M231.956 421.448C232.584 421.448 233.103 420.936 233.008 420.315C232.917 419.72 232.754 419.137 232.523 418.578C232.146 417.668 231.593 416.841 230.897 416.145C230.201 415.449 229.374 414.896 228.464 414.519C227.554 414.142 226.579 413.948 225.594 413.948C224.609 413.948 223.634 414.142 222.724 414.519C221.814 414.896 220.987 415.449 220.29 416.145C219.594 416.841 219.042 417.668 218.665 418.578C218.433 419.137 218.271 419.72 218.18 420.315C218.085 420.936 218.603 421.448 219.231 421.448V421.448C219.86 421.448 220.357 420.933 220.492 420.32C220.558 420.023 220.65 419.731 220.767 419.449C221.029 418.815 221.414 418.239 221.899 417.754C222.384 417.269 222.96 416.884 223.594 416.621C224.228 416.359 224.908 416.223 225.594 416.223C226.28 416.223 226.959 416.359 227.593 416.621C228.227 416.884 228.803 417.269 229.288 417.754C229.773 418.239 230.158 418.815 230.421 419.449C230.538 419.731 230.629 420.023 230.695 420.32C230.831 420.933 231.328 421.448 231.956 421.448V421.448Z"
      fill="black" stroke="black" stroke-width="0.5" mask="url(#path-16-inside-5_170_560)" />
    <mask id="path-17-inside-6_170_560" fill="white">
      <path
        d="M260.956 421.448C261.584 421.448 262.103 420.936 262.008 420.315C261.917 419.72 261.754 419.137 261.523 418.578C261.146 417.668 260.593 416.841 259.897 416.145C259.201 415.449 258.374 414.896 257.464 414.519C256.554 414.142 255.579 413.948 254.594 413.948C253.609 413.948 252.634 414.142 251.724 414.519C250.814 414.896 249.987 415.449 249.29 416.145C248.594 416.841 248.042 417.668 247.665 418.578C247.433 419.137 247.271 419.72 247.18 420.315C247.085 420.936 247.603 421.448 248.231 421.448V421.448C248.86 421.448 249.357 420.933 249.492 420.32C249.558 420.023 249.65 419.731 249.767 419.449C250.029 418.815 250.414 418.239 250.899 417.754C251.384 417.269 251.96 416.884 252.594 416.621C253.228 416.359 253.908 416.223 254.594 416.223C255.28 416.223 255.959 416.359 256.593 416.621C257.227 416.884 257.803 417.269 258.288 417.754C258.773 418.239 259.158 418.815 259.421 419.449C259.538 419.731 259.629 420.023 259.695 420.32C259.831 420.933 260.328 421.448 260.956 421.448V421.448Z" />
    </mask>
    <path
      d="M260.956 421.448C261.584 421.448 262.103 420.936 262.008 420.315C261.917 419.72 261.754 419.137 261.523 418.578C261.146 417.668 260.593 416.841 259.897 416.145C259.201 415.449 258.374 414.896 257.464 414.519C256.554 414.142 255.579 413.948 254.594 413.948C253.609 413.948 252.634 414.142 251.724 414.519C250.814 414.896 249.987 415.449 249.29 416.145C248.594 416.841 248.042 417.668 247.665 418.578C247.433 419.137 247.271 419.72 247.18 420.315C247.085 420.936 247.603 421.448 248.231 421.448V421.448C248.86 421.448 249.357 420.933 249.492 420.32C249.558 420.023 249.65 419.731 249.767 419.449C250.029 418.815 250.414 418.239 250.899 417.754C251.384 417.269 251.96 416.884 252.594 416.621C253.228 416.359 253.908 416.223 254.594 416.223C255.28 416.223 255.959 416.359 256.593 416.621C257.227 416.884 257.803 417.269 258.288 417.754C258.773 418.239 259.158 418.815 259.421 419.449C259.538 419.731 259.629 420.023 259.695 420.32C259.831 420.933 260.328 421.448 260.956 421.448V421.448Z"
      fill="black" stroke="black" stroke-width="0.5" mask="url(#path-17-inside-6_170_560)" />
    <path
      d="M239.014 435.567L235.764 432.317C235.213 431.766 235.603 430.823 236.382 430.823H243.804C244.584 430.823 244.974 431.766 244.423 432.317L241.173 435.567L241.069 435.671C240.764 435.975 240.593 436.389 240.593 436.82V438.327C240.593 438.758 240.764 439.171 241.069 439.476L241.172 439.579L244.313 442.825C244.577 443.099 244.57 443.534 244.296 443.799C244.025 444.061 243.593 444.055 243.328 443.786L241.251 441.676C240.615 441.03 239.572 441.03 238.935 441.676L236.855 443.79C236.586 444.063 236.15 444.08 235.861 443.827C235.545 443.551 235.529 443.065 235.825 442.768L239.014 439.58L239.014 439.58L239.117 439.476C239.422 439.171 239.593 438.758 239.593 438.327V436.82C239.593 436.389 239.422 435.975 239.117 435.671L239.014 435.567Z"
      fill="black" stroke="black" stroke-width="0.25" />
    <rect width="480" height="270" transform="translate(481 271)" fill="white" />
    <path
      d="M506.412 323H495.842V293.182H506.499C509.499 293.182 512.08 293.779 514.245 294.973C516.41 296.157 518.074 297.86 519.239 300.083C520.413 302.306 521.001 304.965 521.001 308.062C521.001 311.168 520.413 313.837 519.239 316.07C518.074 318.302 516.4 320.015 514.216 321.209C512.042 322.403 509.44 323 506.412 323ZM502.146 317.598H506.15C508.013 317.598 509.581 317.268 510.853 316.608C512.134 315.939 513.095 314.905 513.735 313.507C514.386 312.1 514.711 310.285 514.711 308.062C514.711 305.858 514.386 304.058 513.735 302.66C513.095 301.262 512.139 300.234 510.867 299.574C509.596 298.913 508.028 298.583 506.164 298.583H502.146V317.598Z"
      fill="black" />
    <path fill-rule="evenodd" clip-rule="evenodd"
      d="M726.695 349.862C723.278 347.379 718.651 347.379 715.233 349.862L664.52 386.708C661.103 389.19 659.673 393.591 660.978 397.608L680.349 457.226C681.654 461.243 685.398 463.963 689.621 463.963H752.307C756.531 463.963 760.274 461.243 761.58 457.226L780.95 397.608C782.256 393.591 780.826 389.19 777.409 386.708L726.695 349.862ZM682.835 416.073C682.835 402.538 690.078 390.671 700.947 384.043L708.585 406.448H733.585L741.18 384.17C751.934 390.822 759.085 402.624 759.085 416.073C759.085 436.853 742.016 453.698 720.96 453.698C699.904 453.698 682.835 436.853 682.835 416.073Z"
      fill="#F1CE30" />
    <path
      d="M715.094 371.948L720.387 377.241C720.777 377.632 721.41 377.632 721.801 377.241L727.094 371.948"
      stroke="black" stroke-width="7" stroke-linecap="round" />
    <mask id="path-22-inside-7_170_560" fill="white">
      <path
        d="M712.956 421.448C713.584 421.448 714.103 420.936 714.008 420.315C713.917 419.72 713.754 419.137 713.523 418.578C713.146 417.668 712.593 416.841 711.897 416.145C711.201 415.449 710.374 414.896 709.464 414.519C708.554 414.142 707.579 413.948 706.594 413.948C705.609 413.948 704.634 414.142 703.724 414.519C702.814 414.896 701.987 415.449 701.29 416.145C700.594 416.841 700.042 417.668 699.665 418.578C699.433 419.137 699.271 419.72 699.18 420.315C699.085 420.936 699.603 421.448 700.231 421.448V421.448C700.86 421.448 701.357 420.933 701.492 420.32C701.558 420.023 701.65 419.731 701.767 419.449C702.029 418.815 702.414 418.239 702.899 417.754C703.384 417.269 703.96 416.884 704.594 416.621C705.228 416.359 705.908 416.223 706.594 416.223C707.28 416.223 707.959 416.359 708.593 416.621C709.227 416.884 709.803 417.269 710.288 417.754C710.773 418.239 711.158 418.815 711.421 419.449C711.538 419.731 711.629 420.023 711.695 420.32C711.831 420.933 712.328 421.448 712.956 421.448V421.448Z" />
    </mask>
    <path
      d="M712.956 421.448C713.584 421.448 714.103 420.936 714.008 420.315C713.917 419.72 713.754 419.137 713.523 418.578C713.146 417.668 712.593 416.841 711.897 416.145C711.201 415.449 710.374 414.896 709.464 414.519C708.554 414.142 707.579 413.948 706.594 413.948C705.609 413.948 704.634 414.142 703.724 414.519C702.814 414.896 701.987 415.449 701.29 416.145C700.594 416.841 700.042 417.668 699.665 418.578C699.433 419.137 699.271 419.72 699.18 420.315C699.085 420.936 699.603 421.448 700.231 421.448V421.448C700.86 421.448 701.357 420.933 701.492 420.32C701.558 420.023 701.65 419.731 701.767 419.449C702.029 418.815 702.414 418.239 702.899 417.754C703.384 417.269 703.96 416.884 704.594 416.621C705.228 416.359 705.908 416.223 706.594 416.223C707.28 416.223 707.959 416.359 708.593 416.621C709.227 416.884 709.803 417.269 710.288 417.754C710.773 418.239 711.158 418.815 711.421 419.449C711.538 419.731 711.629 420.023 711.695 420.32C711.831 420.933 712.328 421.448 712.956 421.448V421.448Z"
      fill="black" stroke="black" stroke-width="0.5" mask="url(#path-22-inside-7_170_560)" />
    <mask id="path-23-inside-8_170_560" fill="white">
      <path
        d="M741.956 421.448C742.584 421.448 743.103 420.936 743.008 420.315C742.917 419.72 742.754 419.137 742.523 418.578C742.146 417.668 741.593 416.841 740.897 416.145C740.201 415.449 739.374 414.896 738.464 414.519C737.554 414.142 736.579 413.948 735.594 413.948C734.609 413.948 733.634 414.142 732.724 414.519C731.814 414.896 730.987 415.449 730.29 416.145C729.594 416.841 729.042 417.668 728.665 418.578C728.433 419.137 728.271 419.72 728.18 420.315C728.085 420.936 728.603 421.448 729.231 421.448V421.448C729.86 421.448 730.357 420.933 730.492 420.32C730.558 420.023 730.65 419.731 730.767 419.449C731.029 418.815 731.414 418.239 731.899 417.754C732.384 417.269 732.96 416.884 733.594 416.621C734.228 416.359 734.908 416.223 735.594 416.223C736.28 416.223 736.959 416.359 737.593 416.621C738.227 416.884 738.803 417.269 739.288 417.754C739.773 418.239 740.158 418.815 740.421 419.449C740.538 419.731 740.629 420.023 740.695 420.32C740.831 420.933 741.328 421.448 741.956 421.448V421.448Z" />
    </mask>
    <path
      d="M741.956 421.448C742.584 421.448 743.103 420.936 743.008 420.315C742.917 419.72 742.754 419.137 742.523 418.578C742.146 417.668 741.593 416.841 740.897 416.145C740.201 415.449 739.374 414.896 738.464 414.519C737.554 414.142 736.579 413.948 735.594 413.948C734.609 413.948 733.634 414.142 732.724 414.519C731.814 414.896 730.987 415.449 730.29 416.145C729.594 416.841 729.042 417.668 728.665 418.578C728.433 419.137 728.271 419.72 728.18 420.315C728.085 420.936 728.603 421.448 729.231 421.448V421.448C729.86 421.448 730.357 420.933 730.492 420.32C730.558 420.023 730.65 419.731 730.767 419.449C731.029 418.815 731.414 418.239 731.899 417.754C732.384 417.269 732.96 416.884 733.594 416.621C734.228 416.359 734.908 416.223 735.594 416.223C736.28 416.223 736.959 416.359 737.593 416.621C738.227 416.884 738.803 417.269 739.288 417.754C739.773 418.239 740.158 418.815 740.421 419.449C740.538 419.731 740.629 420.023 740.695 420.32C740.831 420.933 741.328 421.448 741.956 421.448V421.448Z"
      fill="black" stroke="black" stroke-width="0.5" mask="url(#path-23-inside-8_170_560)" />
    <path
      d="M720.014 435.567L716.764 432.317C716.213 431.766 716.603 430.823 717.382 430.823H724.804C725.584 430.823 725.974 431.766 725.423 432.317L722.173 435.567L722.069 435.671C721.764 435.975 721.593 436.389 721.593 436.82V438.327C721.593 438.758 721.764 439.171 722.069 439.476L722.172 439.579L725.313 442.825C725.577 443.099 725.57 443.534 725.296 443.799C725.025 444.061 724.593 444.055 724.328 443.786L722.251 441.676C721.615 441.03 720.572 441.03 719.935 441.676L717.855 443.79C717.586 444.063 717.15 444.08 716.861 443.827C716.545 443.551 716.529 443.065 716.825 442.768L720.014 439.58L720.014 439.58L720.117 439.476C720.422 439.171 720.593 438.758 720.593 438.327V436.82C720.593 436.389 720.422 435.975 720.117 435.671L720.014 435.567Z"
      fill="black" stroke="black" stroke-width="0.25" />
  </g>
  <defs>
    <clipPath id="clip0_170_560">
      <rect width="961" height="541" fill="white" />
    </clipPath>
  </defs>
</svg>