<svg width="962" height="542" viewBox="0 0 962 542" fill="none" xmlns="http://www.w3.org/2000/svg">
  <g clip-path="url(#clip0_170_597)">
    <rect width="961" height="541" transform="translate(0.5 0.5)" fill="#B9B9B9" />
    <rect width="480" height="270" transform="translate(0.5 0.5)" fill="white" />
    <path fill-rule="evenodd" clip-rule="evenodd"
      d="M246.195 57.8621C242.778 55.3793 238.151 55.3793 234.733 57.8621L184.02 94.7076C180.603 97.1904 179.173 101.591 180.478 105.608L199.849 165.226C201.154 169.243 204.898 171.963 209.121 171.963H271.807C276.031 171.963 279.774 169.243 281.08 165.226L300.45 105.608C301.756 101.591 300.326 97.1904 296.909 94.7076L246.195 57.8621ZM202.335 124.073C202.335 110.538 209.578 98.6713 220.447 92.0429L228.085 114.448H253.085L260.68 92.1698C271.434 98.8222 278.585 110.624 278.585 124.073C278.585 144.853 261.516 161.698 240.46 161.698C219.404 161.698 202.335 144.853 202.335 124.073Z"
      fill="#868686" />
    <path
      d="M234.594 79.9482L239.887 85.2411C240.277 85.6317 240.91 85.6317 241.301 85.2411L246.594 79.9482"
      stroke="black" stroke-width="7" stroke-linecap="round" />
    <mask id="path-3-inside-1_170_597" fill="white">
      <path
        d="M232.456 129.448C233.084 129.448 233.603 128.936 233.508 128.315C233.417 127.72 233.254 127.137 233.023 126.578C232.646 125.668 232.093 124.841 231.397 124.145C230.701 123.449 229.874 122.896 228.964 122.519C228.054 122.142 227.079 121.948 226.094 121.948C225.109 121.948 224.134 122.142 223.224 122.519C222.314 122.896 221.487 123.449 220.79 124.145C220.094 124.841 219.542 125.668 219.165 126.578C218.933 127.137 218.771 127.72 218.68 128.315C218.585 128.936 219.103 129.448 219.731 129.448V129.448C220.36 129.448 220.857 128.933 220.992 128.32C221.058 128.023 221.15 127.731 221.267 127.449C221.529 126.815 221.914 126.239 222.399 125.754C222.884 125.269 223.46 124.884 224.094 124.621C224.728 124.359 225.408 124.223 226.094 124.223C226.78 124.223 227.459 124.359 228.093 124.621C228.727 124.884 229.303 125.269 229.788 125.754C230.273 126.239 230.658 126.815 230.921 127.449C231.038 127.731 231.129 128.023 231.195 128.32C231.331 128.933 231.828 129.448 232.456 129.448V129.448Z" />
    </mask>
    <path
      d="M232.456 129.448C233.084 129.448 233.603 128.936 233.508 128.315C233.417 127.72 233.254 127.137 233.023 126.578C232.646 125.668 232.093 124.841 231.397 124.145C230.701 123.449 229.874 122.896 228.964 122.519C228.054 122.142 227.079 121.948 226.094 121.948C225.109 121.948 224.134 122.142 223.224 122.519C222.314 122.896 221.487 123.449 220.79 124.145C220.094 124.841 219.542 125.668 219.165 126.578C218.933 127.137 218.771 127.72 218.68 128.315C218.585 128.936 219.103 129.448 219.731 129.448V129.448C220.36 129.448 220.857 128.933 220.992 128.32C221.058 128.023 221.15 127.731 221.267 127.449C221.529 126.815 221.914 126.239 222.399 125.754C222.884 125.269 223.46 124.884 224.094 124.621C224.728 124.359 225.408 124.223 226.094 124.223C226.78 124.223 227.459 124.359 228.093 124.621C228.727 124.884 229.303 125.269 229.788 125.754C230.273 126.239 230.658 126.815 230.921 127.449C231.038 127.731 231.129 128.023 231.195 128.32C231.331 128.933 231.828 129.448 232.456 129.448V129.448Z"
      fill="black" stroke="black" stroke-width="0.5" mask="url(#path-3-inside-1_170_597)" />
    <mask id="path-4-inside-2_170_597" fill="white">
      <path
        d="M261.456 129.448C262.084 129.448 262.603 128.936 262.508 128.315C262.417 127.72 262.254 127.137 262.023 126.578C261.646 125.668 261.093 124.841 260.397 124.145C259.701 123.449 258.874 122.896 257.964 122.519C257.054 122.142 256.079 121.948 255.094 121.948C254.109 121.948 253.134 122.142 252.224 122.519C251.314 122.896 250.487 123.449 249.79 124.145C249.094 124.841 248.542 125.668 248.165 126.578C247.933 127.137 247.771 127.72 247.68 128.315C247.585 128.936 248.103 129.448 248.731 129.448V129.448C249.36 129.448 249.857 128.933 249.992 128.32C250.058 128.023 250.15 127.731 250.267 127.449C250.529 126.815 250.914 126.239 251.399 125.754C251.884 125.269 252.46 124.884 253.094 124.621C253.728 124.359 254.408 124.223 255.094 124.223C255.78 124.223 256.459 124.359 257.093 124.621C257.727 124.884 258.303 125.269 258.788 125.754C259.273 126.239 259.658 126.815 259.921 127.449C260.038 127.731 260.129 128.023 260.195 128.32C260.331 128.933 260.828 129.448 261.456 129.448V129.448Z" />
    </mask>
    <path
      d="M261.456 129.448C262.084 129.448 262.603 128.936 262.508 128.315C262.417 127.72 262.254 127.137 262.023 126.578C261.646 125.668 261.093 124.841 260.397 124.145C259.701 123.449 258.874 122.896 257.964 122.519C257.054 122.142 256.079 121.948 255.094 121.948C254.109 121.948 253.134 122.142 252.224 122.519C251.314 122.896 250.487 123.449 249.79 124.145C249.094 124.841 248.542 125.668 248.165 126.578C247.933 127.137 247.771 127.72 247.68 128.315C247.585 128.936 248.103 129.448 248.731 129.448V129.448C249.36 129.448 249.857 128.933 249.992 128.32C250.058 128.023 250.15 127.731 250.267 127.449C250.529 126.815 250.914 126.239 251.399 125.754C251.884 125.269 252.46 124.884 253.094 124.621C253.728 124.359 254.408 124.223 255.094 124.223C255.78 124.223 256.459 124.359 257.093 124.621C257.727 124.884 258.303 125.269 258.788 125.754C259.273 126.239 259.658 126.815 259.921 127.449C260.038 127.731 260.129 128.023 260.195 128.32C260.331 128.933 260.828 129.448 261.456 129.448V129.448Z"
      fill="black" stroke="black" stroke-width="0.5" mask="url(#path-4-inside-2_170_597)" />
    <path
      d="M239.514 143.567L236.264 140.317C235.713 139.766 236.103 138.823 236.882 138.823H244.304C245.084 138.823 245.474 139.766 244.923 140.317L241.673 143.567L241.569 143.671C241.264 143.975 241.093 144.389 241.093 144.82V146.327C241.093 146.758 241.264 147.171 241.569 147.476L241.672 147.579L244.813 150.825C245.077 151.099 245.07 151.534 244.796 151.799C244.525 152.061 244.093 152.055 243.828 151.786L241.751 149.676C241.115 149.03 240.072 149.03 239.435 149.676L237.355 151.79C237.086 152.063 236.65 152.08 236.361 151.827C236.045 151.551 236.029 151.065 236.325 150.768L239.514 147.58L239.514 147.58L239.617 147.476C239.922 147.171 240.093 146.758 240.093 146.327V144.82C240.093 144.389 239.922 143.975 239.617 143.671L239.514 143.567Z"
      fill="black" stroke="black" stroke-width="0.25" />
    <path
      d="M27.8896 22.6818V52.5H21.5852V28.6658H21.4105L14.582 32.9464V27.3555L21.9638 22.6818H27.8896Z"
      fill="black" />
    <path
      d="M173.154 211.768C171.468 211.768 169.932 211.565 168.546 211.16C167.159 210.776 166.103 210.285 165.378 209.688C165.186 208.749 165.047 207.843 164.962 206.968C164.876 206.072 164.834 205.208 164.834 204.376C164.834 202.477 165.026 200.696 165.41 199.032C165.794 197.347 166.306 195.821 166.946 194.456C167.607 193.069 168.332 191.885 169.122 190.904C169.911 189.901 170.7 189.133 171.49 188.6L177.666 192.504C175.703 193.763 173.996 195.267 172.546 197.016C171.116 198.744 170.007 200.589 169.218 202.552C168.45 204.515 168.066 206.477 168.066 208.44C168.556 208.525 169.058 208.589 169.57 208.632C170.082 208.653 170.604 208.664 171.138 208.664C172.183 208.664 173.239 208.579 174.306 208.408C175.372 208.216 176.46 207.917 177.57 207.512L178.658 210.968C177.74 211.245 176.812 211.448 175.874 211.576C174.935 211.704 174.028 211.768 173.154 211.768ZM182.816 211.48L179.616 211L185.6 189.72L193.344 190.2L197.504 211L194.624 211.48L192.416 206.168L183.904 206.872L182.816 211.48ZM191.712 204.472L187.264 193.752H187.008L184.48 204.408L191.712 204.472ZM205.377 211.448L203.777 193.016L199.297 193.464L199.105 190.168L215.457 189.72L215.361 191.864L210.881 192.312L208.897 211.128L205.377 211.448ZM241.947 211.512L241.211 203.128L234.459 203.672L233.691 211.128L230.491 211.448L228.667 190.2L235.963 189.72L234.747 201.208L241.051 201.272L240.123 190.264L247.419 189.784L245.147 211.192L241.947 211.512ZM259.725 211.768C258.04 211.768 256.61 211.565 255.437 211.16C254.264 210.776 253.314 210.285 252.589 209.688C252.397 208.749 252.258 207.843 252.173 206.968C252.088 206.072 252.045 205.208 252.045 204.376C252.045 202.477 252.237 200.707 252.621 199.064C253.005 197.421 253.517 195.939 254.157 194.616C254.818 193.272 255.544 192.12 256.333 191.16C257.122 190.2 257.912 189.453 258.701 188.92C260.301 189.581 261.752 190.648 263.053 192.12C264.376 193.592 265.421 195.373 266.189 197.464C266.978 199.533 267.373 201.837 267.373 204.376C267.373 205.997 267.17 207.363 266.765 208.472C266.36 209.56 265.602 210.381 264.493 210.936C263.405 211.491 261.816 211.768 259.725 211.768ZM257.869 208.664C258.765 208.664 259.661 208.6 260.557 208.472C261.453 208.344 262.242 208.163 262.925 207.928C263.16 206.947 263.309 206.083 263.373 205.336C263.458 204.589 263.501 203.789 263.501 202.936C263.501 201.251 263.362 199.704 263.085 198.296C262.808 196.888 262.402 195.619 261.869 194.488C260.482 195.768 259.298 197.187 258.317 198.744C257.336 200.28 256.578 201.88 256.045 203.544C255.533 205.208 255.277 206.84 255.277 208.44C255.661 208.525 256.066 208.589 256.493 208.632C256.941 208.653 257.4 208.664 257.869 208.664ZM282.377 211.48L275.433 195.704H275.241L274.729 211L271.529 211.16L273.033 190.2L280.777 189.88L284.009 205.112L287.753 189.72L295.497 190.2L296.457 211L293.577 211.48L289.001 194.456H288.745L285.257 211L282.377 211.48ZM303.511 211.288L302.007 190.2L316.119 189.752L316.023 191.896L309.271 192.696L308.439 199.32L315.255 199.256L315.415 202.136L308.183 201.592L307.319 208.728L316.151 207.704L316.023 211L303.511 211.288Z"
      fill="black" />
    <rect width="480" height="270" transform="translate(481.5 0.5)" fill="white" />
    <path
      d="M497.417 52.5V47.9574L508.031 38.1296C508.934 37.256 509.691 36.4698 510.302 35.771C510.923 35.0721 511.394 34.3878 511.714 33.718C512.035 33.0386 512.195 32.3058 512.195 31.5195C512.195 30.646 511.996 29.8937 511.598 29.2628C511.2 28.6222 510.656 28.132 509.967 27.7923C509.278 27.4428 508.497 27.2681 507.623 27.2681C506.711 27.2681 505.915 27.4525 505.235 27.8214C504.556 28.1902 504.032 28.7192 503.663 29.4084C503.294 30.0975 503.11 30.9177 503.11 31.869H497.126C497.126 29.918 497.567 28.2242 498.451 26.7876C499.334 25.3511 500.571 24.2397 502.163 23.4535C503.755 22.6673 505.59 22.2741 507.667 22.2741C509.802 22.2741 511.661 22.6527 513.243 23.4098C514.835 24.1572 516.073 25.1958 516.956 26.5256C517.839 27.8553 518.281 29.3793 518.281 31.0973C518.281 32.2232 518.058 33.3346 517.611 34.4315C517.174 35.5283 516.393 36.7464 515.267 38.0859C514.141 39.4157 512.554 41.0124 510.506 42.8761L506.153 47.142V47.3459H518.674V52.5H497.417Z"
      fill="black" />
    <path fill-rule="evenodd" clip-rule="evenodd"
      d="M727.195 57.8621C723.778 55.3793 719.151 55.3793 715.733 57.8621L665.02 94.7076C661.603 97.1904 660.173 101.591 661.478 105.608L680.849 165.226C682.154 169.243 685.898 171.963 690.121 171.963H752.807C757.031 171.963 760.774 169.243 762.08 165.226L781.45 105.608C782.756 101.591 781.326 97.1904 777.909 94.7076L727.195 57.8621ZM683.335 124.073C683.335 110.538 690.578 98.6713 701.447 92.0429L709.085 114.448H734.085L741.68 92.1698C752.434 98.8222 759.585 110.624 759.585 124.073C759.585 144.853 742.516 161.698 721.46 161.698C700.404 161.698 683.335 144.853 683.335 124.073Z"
      fill="#868686" />
    <path
      d="M715.594 79.9482L720.887 85.2411C721.277 85.6317 721.91 85.6317 722.301 85.2411L727.594 79.9482"
      stroke="black" stroke-width="7" stroke-linecap="round" />
    <mask id="path-11-inside-3_170_597" fill="white">
      <path
        d="M713.456 129.448C714.084 129.448 714.603 128.936 714.508 128.315C714.417 127.72 714.254 127.137 714.023 126.578C713.646 125.668 713.093 124.841 712.397 124.145C711.701 123.449 710.874 122.896 709.964 122.519C709.054 122.142 708.079 121.948 707.094 121.948C706.109 121.948 705.134 122.142 704.224 122.519C703.314 122.896 702.487 123.449 701.79 124.145C701.094 124.841 700.542 125.668 700.165 126.578C699.933 127.137 699.771 127.72 699.68 128.315C699.585 128.936 700.103 129.448 700.731 129.448V129.448C701.36 129.448 701.857 128.933 701.992 128.32C702.058 128.023 702.15 127.731 702.267 127.449C702.529 126.815 702.914 126.239 703.399 125.754C703.884 125.269 704.46 124.884 705.094 124.621C705.728 124.359 706.408 124.223 707.094 124.223C707.78 124.223 708.459 124.359 709.093 124.621C709.727 124.884 710.303 125.269 710.788 125.754C711.273 126.239 711.658 126.815 711.921 127.449C712.038 127.731 712.129 128.023 712.195 128.32C712.331 128.933 712.828 129.448 713.456 129.448V129.448Z" />
    </mask>
    <path
      d="M713.456 129.448C714.084 129.448 714.603 128.936 714.508 128.315C714.417 127.72 714.254 127.137 714.023 126.578C713.646 125.668 713.093 124.841 712.397 124.145C711.701 123.449 710.874 122.896 709.964 122.519C709.054 122.142 708.079 121.948 707.094 121.948C706.109 121.948 705.134 122.142 704.224 122.519C703.314 122.896 702.487 123.449 701.79 124.145C701.094 124.841 700.542 125.668 700.165 126.578C699.933 127.137 699.771 127.72 699.68 128.315C699.585 128.936 700.103 129.448 700.731 129.448V129.448C701.36 129.448 701.857 128.933 701.992 128.32C702.058 128.023 702.15 127.731 702.267 127.449C702.529 126.815 702.914 126.239 703.399 125.754C703.884 125.269 704.46 124.884 705.094 124.621C705.728 124.359 706.408 124.223 707.094 124.223C707.78 124.223 708.459 124.359 709.093 124.621C709.727 124.884 710.303 125.269 710.788 125.754C711.273 126.239 711.658 126.815 711.921 127.449C712.038 127.731 712.129 128.023 712.195 128.32C712.331 128.933 712.828 129.448 713.456 129.448V129.448Z"
      fill="black" stroke="black" stroke-width="0.5" mask="url(#path-11-inside-3_170_597)" />
    <mask id="path-12-inside-4_170_597" fill="white">
      <path
        d="M742.456 129.448C743.084 129.448 743.603 128.936 743.508 128.315C743.417 127.72 743.254 127.137 743.023 126.578C742.646 125.668 742.093 124.841 741.397 124.145C740.701 123.449 739.874 122.896 738.964 122.519C738.054 122.142 737.079 121.948 736.094 121.948C735.109 121.948 734.134 122.142 733.224 122.519C732.314 122.896 731.487 123.449 730.79 124.145C730.094 124.841 729.542 125.668 729.165 126.578C728.933 127.137 728.771 127.72 728.68 128.315C728.585 128.936 729.103 129.448 729.731 129.448V129.448C730.36 129.448 730.857 128.933 730.992 128.32C731.058 128.023 731.15 127.731 731.267 127.449C731.529 126.815 731.914 126.239 732.399 125.754C732.884 125.269 733.46 124.884 734.094 124.621C734.728 124.359 735.408 124.223 736.094 124.223C736.78 124.223 737.459 124.359 738.093 124.621C738.727 124.884 739.303 125.269 739.788 125.754C740.273 126.239 740.658 126.815 740.921 127.449C741.038 127.731 741.129 128.023 741.195 128.32C741.331 128.933 741.828 129.448 742.456 129.448V129.448Z" />
    </mask>
    <path
      d="M742.456 129.448C743.084 129.448 743.603 128.936 743.508 128.315C743.417 127.72 743.254 127.137 743.023 126.578C742.646 125.668 742.093 124.841 741.397 124.145C740.701 123.449 739.874 122.896 738.964 122.519C738.054 122.142 737.079 121.948 736.094 121.948C735.109 121.948 734.134 122.142 733.224 122.519C732.314 122.896 731.487 123.449 730.79 124.145C730.094 124.841 729.542 125.668 729.165 126.578C728.933 127.137 728.771 127.72 728.68 128.315C728.585 128.936 729.103 129.448 729.731 129.448V129.448C730.36 129.448 730.857 128.933 730.992 128.32C731.058 128.023 731.15 127.731 731.267 127.449C731.529 126.815 731.914 126.239 732.399 125.754C732.884 125.269 733.46 124.884 734.094 124.621C734.728 124.359 735.408 124.223 736.094 124.223C736.78 124.223 737.459 124.359 738.093 124.621C738.727 124.884 739.303 125.269 739.788 125.754C740.273 126.239 740.658 126.815 740.921 127.449C741.038 127.731 741.129 128.023 741.195 128.32C741.331 128.933 741.828 129.448 742.456 129.448V129.448Z"
      fill="black" stroke="black" stroke-width="0.5" mask="url(#path-12-inside-4_170_597)" />
    <path
      d="M720.514 143.567L717.264 140.317C716.713 139.766 717.103 138.823 717.882 138.823H725.304C726.084 138.823 726.474 139.766 725.923 140.317L722.673 143.567L722.569 143.671C722.264 143.975 722.093 144.389 722.093 144.82V146.327C722.093 146.758 722.264 147.171 722.569 147.476L722.672 147.579L725.813 150.825C726.077 151.099 726.07 151.534 725.796 151.799C725.525 152.061 725.093 152.055 724.828 151.786L722.751 149.676C722.115 149.03 721.072 149.03 720.435 149.676L718.355 151.79C718.086 152.063 717.65 152.08 717.361 151.827C717.045 151.551 717.029 151.065 717.325 150.768L720.514 147.58L720.514 147.58L720.617 147.476C720.922 147.171 721.093 146.758 721.093 146.327V144.82C721.093 144.389 720.922 143.975 720.617 143.671L720.514 143.567Z"
      fill="black" stroke="black" stroke-width="0.25" />
    <path
      d="M663.025 212.576C661.393 212.576 659.964 212.181 658.737 211.392C657.51 210.592 656.556 209.397 655.873 207.808C655.201 206.219 654.865 204.224 654.865 201.824C654.865 199.285 655.318 197.088 656.225 195.232C657.132 193.365 658.348 191.925 659.873 190.912C661.398 189.888 663.089 189.376 664.945 189.376C665.809 189.376 666.598 189.499 667.313 189.744C668.028 189.979 668.593 190.373 669.009 190.928C669.436 191.472 669.649 192.203 669.649 193.12C669.649 194.059 669.452 194.864 669.057 195.536C668.662 196.208 668.102 196.544 667.377 196.544C667.217 196.544 667.068 196.544 666.929 196.544C666.801 196.533 666.662 196.512 666.513 196.48C666.801 195.189 666.977 194.224 667.041 193.584C667.105 192.944 667.073 192.512 666.945 192.288C666.828 192.064 666.652 191.936 666.417 191.904C666.182 191.872 665.964 191.952 665.761 192.144C665.569 192.336 665.393 192.752 665.233 193.392C665.073 194.021 664.934 194.976 664.817 196.256C664.582 196.224 664.284 196.192 663.921 196.16C663.569 196.128 663.27 196.117 663.025 196.128C663.068 195.093 663.062 194.32 663.009 193.808C662.966 193.296 662.87 192.96 662.721 192.8C662.572 192.64 662.364 192.565 662.097 192.576C661.862 192.587 661.665 192.683 661.505 192.864C661.345 193.035 661.233 193.376 661.169 193.888C661.116 194.389 661.116 195.136 661.169 196.128C660.593 196.267 660.044 196.592 659.521 197.104C659.009 197.605 658.588 198.283 658.257 199.136C657.937 199.979 657.777 200.981 657.777 202.144C657.777 203.819 658.022 205.248 658.513 206.432C659.004 207.616 659.654 208.523 660.465 209.152C661.276 209.771 662.161 210.08 663.121 210.08C663.228 210.08 663.329 210.08 663.425 210.08C663.532 210.069 663.633 210.059 663.729 210.048C663.836 210.027 663.937 210.011 664.033 210C664.14 209.979 664.241 209.957 664.337 209.936C664.486 209.904 664.636 209.861 664.785 209.808C664.945 209.755 665.1 209.701 665.249 209.648C665.334 209.605 665.42 209.568 665.505 209.536C665.59 209.493 665.67 209.451 665.745 209.408C665.809 209.376 665.868 209.339 665.921 209.296C665.985 209.253 666.044 209.216 666.097 209.184C666.161 209.152 666.22 209.12 666.273 209.088C666.316 209.035 666.364 208.997 666.417 208.976C666.47 208.944 666.518 208.907 666.561 208.864C666.614 208.811 666.678 208.752 666.753 208.688C667.137 208.304 667.457 208.021 667.713 207.84C667.98 207.659 668.262 207.568 668.561 207.568C668.838 207.568 669.057 207.669 669.217 207.872C669.388 208.075 669.473 208.32 669.473 208.608C669.473 209.141 669.297 209.648 668.945 210.128C668.593 210.597 668.113 211.019 667.505 211.392C666.897 211.755 666.204 212.043 665.425 212.256C664.657 212.469 663.857 212.576 663.025 212.576ZM661.137 191.36C661.169 191.403 661.206 191.461 661.249 191.536C661.302 191.611 661.35 191.691 661.393 191.776C661.478 191.957 661.425 192.165 661.233 192.4C661.041 192.624 660.806 192.821 660.529 192.992C660.262 193.152 660.044 193.232 659.873 193.232C659.82 193.232 659.766 193.232 659.713 193.232C659.66 193.221 659.612 193.195 659.569 193.152C659.537 193.12 659.489 193.072 659.425 193.008C659.361 192.933 659.313 192.875 659.281 192.832C659.089 192.555 659.03 192.283 659.105 192.016C659.18 191.749 659.345 191.531 659.601 191.36C659.857 191.179 660.134 191.088 660.433 191.088C660.582 191.088 660.716 191.115 660.833 191.168C660.961 191.211 661.062 191.275 661.137 191.36ZM654.593 205.472C655.18 205.205 655.905 204.896 656.769 204.544C657.633 204.192 658.518 203.856 659.425 203.536C659.788 203.397 660.102 203.365 660.369 203.44C660.636 203.515 660.828 203.675 660.945 203.92C661.105 204.197 661.126 204.475 661.009 204.752C660.902 205.019 660.662 205.259 660.289 205.472C659.446 205.92 658.598 206.357 657.745 206.784C656.902 207.211 656.14 207.573 655.457 207.872C654.902 208.128 654.438 208.229 654.065 208.176C653.702 208.112 653.441 207.883 653.281 207.488C653.132 207.104 653.153 206.741 653.345 206.4C653.548 206.059 653.964 205.749 654.593 205.472ZM663.729 204.256C663.281 204.256 662.918 204.112 662.641 203.824C662.364 203.536 662.225 203.104 662.225 202.528C662.225 202.048 662.38 201.653 662.689 201.344C662.998 201.024 663.462 200.864 664.081 200.864C664.561 200.864 664.934 201.008 665.201 201.296C665.478 201.573 665.617 201.952 665.617 202.432C665.617 203.072 665.468 203.536 665.169 203.824C664.881 204.112 664.401 204.256 663.729 204.256ZM667.185 209.568C667.249 209.643 667.308 209.733 667.361 209.84C667.425 209.936 667.473 210.027 667.505 210.112C667.654 210.432 667.585 210.704 667.297 210.928C667.02 211.152 666.726 211.264 666.417 211.264C666.268 211.264 666.129 211.227 666.001 211.152C665.884 211.077 665.788 210.987 665.713 210.88C665.681 210.827 665.649 210.773 665.617 210.72C665.596 210.656 665.574 210.603 665.553 210.56L667.185 209.568ZM665.201 211.776C665.286 212.352 665.361 212.928 665.425 213.504C665.489 214.091 665.542 214.688 665.585 215.296C665.606 215.755 665.516 216.091 665.313 216.304C665.11 216.528 664.78 216.64 664.321 216.64C663.969 216.64 663.697 216.528 663.505 216.304C663.324 216.08 663.206 215.723 663.153 215.232C663.11 214.72 663.068 214.181 663.025 213.616C662.982 213.051 662.95 212.459 662.929 211.84C662.929 211.52 663.046 211.275 663.281 211.104C663.516 210.933 663.766 210.848 664.033 210.848C664.31 210.848 664.561 210.923 664.785 211.072C665.009 211.221 665.148 211.456 665.201 211.776ZM671.179 209.024C671.382 208.235 671.638 207.253 671.947 206.08C672.256 204.896 672.592 203.637 672.955 202.304C673.318 200.96 673.675 199.664 674.027 198.416C674.656 198.672 675.232 198.869 675.755 199.008C676.288 199.136 676.715 199.152 677.035 199.056C677.355 198.96 677.515 198.699 677.515 198.272C677.515 197.984 677.307 197.707 676.891 197.44C676.486 197.173 675.696 196.896 674.523 196.608C674.619 196.235 674.715 195.883 674.811 195.552C674.907 195.211 674.998 194.891 675.083 194.592C675.819 194.901 676.518 195.152 677.179 195.344C677.84 195.536 678.379 195.595 678.795 195.52C679.211 195.445 679.419 195.168 679.419 194.688C679.419 194.336 679.152 194.016 678.619 193.728C678.086 193.44 677.083 193.131 675.611 192.8C675.622 192.757 675.627 192.725 675.627 192.704C675.638 192.672 675.648 192.635 675.659 192.592C675.936 191.664 676.443 190.944 677.179 190.432C677.926 189.92 678.944 189.675 680.235 189.696C681.558 189.696 682.592 189.989 683.339 190.576C684.086 191.152 684.555 192.075 684.747 193.344C684.768 193.504 684.79 193.675 684.811 193.856C684.843 194.027 684.87 194.208 684.891 194.4C684.912 194.571 684.934 194.747 684.955 194.928C684.987 195.109 685.014 195.296 685.035 195.488C685.056 195.595 685.072 195.701 685.083 195.808C685.104 195.915 685.12 196.021 685.131 196.128C685.152 196.235 685.168 196.347 685.179 196.464C685.211 196.709 685.243 196.96 685.275 197.216C685.307 197.472 685.344 197.733 685.387 198C685.408 198.16 685.43 198.325 685.451 198.496C685.483 198.656 685.504 198.827 685.515 199.008C685.536 199.136 685.552 199.269 685.563 199.408C685.584 199.536 685.606 199.669 685.627 199.808C685.648 199.936 685.664 200.069 685.675 200.208C685.803 201.136 685.926 202.08 686.043 203.04C686.171 204 686.294 204.944 686.411 205.872C686.528 206.8 686.635 207.68 686.731 208.512C686.838 209.344 686.934 210.101 687.019 210.784C687.094 211.371 687.003 211.861 686.747 212.256C686.491 212.661 686.123 212.864 685.643 212.864C685.227 212.864 684.87 212.704 684.571 212.384C684.283 212.075 684.107 211.616 684.043 211.008C683.84 209.088 683.659 207.093 683.499 205.024C683.339 202.944 683.163 200.843 682.971 198.72C682.907 197.984 682.774 197.472 682.571 197.184C682.368 196.896 682.032 196.752 681.563 196.752C681.136 196.752 680.731 196.88 680.347 197.136C679.974 197.392 679.552 197.995 679.083 198.944C678.176 200.779 677.275 202.656 676.379 204.576C675.494 206.496 674.624 208.341 673.771 210.112C673.558 210.549 673.323 210.869 673.067 211.072C672.811 211.264 672.523 211.36 672.203 211.36C671.744 211.36 671.414 211.141 671.211 210.704C671.019 210.267 671.008 209.707 671.179 209.024ZM674.891 206.4L675.499 204.128C676.864 204.075 678.224 204.021 679.579 203.968C680.934 203.915 682.219 203.872 683.435 203.84C683.947 203.819 684.368 203.899 684.699 204.08C685.03 204.251 685.195 204.533 685.195 204.928C685.195 205.355 685.078 205.664 684.843 205.856C684.619 206.048 684.288 206.155 683.851 206.176C682.358 206.24 680.88 206.288 679.419 206.32C677.958 206.352 676.448 206.379 674.891 206.4ZM685.675 209.408C685.387 209.408 685.131 209.317 684.907 209.136C684.694 208.955 684.587 208.704 684.587 208.384C684.587 208.064 684.683 207.819 684.875 207.648C685.078 207.477 685.344 207.392 685.675 207.392C685.739 207.392 685.83 207.392 685.947 207.392C686.064 207.392 686.176 207.392 686.283 207.392V209.408C686.187 209.419 686.086 209.424 685.979 209.424C685.872 209.413 685.771 209.408 685.675 209.408ZM673.211 205.072C672.251 204.795 671.51 204.549 670.987 204.336C670.464 204.123 670.102 203.915 669.899 203.712C669.686 203.499 669.579 203.259 669.579 202.992C669.579 202.48 669.787 202.176 670.203 202.08C670.608 201.984 671.142 202.027 671.803 202.208C672.464 202.389 673.158 202.645 673.883 202.976L673.211 205.072ZM674.123 206.944C673.856 206.859 673.627 206.768 673.435 206.672C673.254 206.576 673.115 206.464 673.019 206.336C672.923 206.208 672.875 206.048 672.875 205.856C672.875 205.451 672.95 205.131 673.099 204.896C673.248 204.661 673.462 204.517 673.739 204.464C674.027 204.411 674.379 204.459 674.795 204.608L674.123 206.944ZM684.171 202.624L683.947 200.416C684.331 200.373 684.646 200.373 684.891 200.416C685.136 200.459 685.318 200.576 685.435 200.768C685.552 200.949 685.611 201.237 685.611 201.632C685.611 202.016 685.488 202.261 685.243 202.368C684.998 202.475 684.64 202.56 684.171 202.624ZM685.307 206.08L685.195 203.744C686.091 203.712 686.795 203.701 687.307 203.712C687.83 203.723 688.198 203.819 688.411 204C688.635 204.171 688.747 204.496 688.747 204.976C688.747 205.413 688.512 205.707 688.043 205.856C687.584 205.995 686.672 206.069 685.307 206.08ZM694.657 211.296C694.518 211.296 694.385 211.269 694.257 211.216C694.129 211.163 694.006 211.083 693.889 210.976C693.804 210.891 693.729 210.784 693.665 210.656C693.601 210.528 693.542 210.352 693.489 210.128C693.446 209.893 693.409 209.573 693.377 209.168C693.345 208.763 693.313 208.235 693.281 207.584C693.27 207.317 693.26 207.061 693.249 206.816C693.238 206.571 693.228 206.331 693.217 206.096C693.206 205.893 693.196 205.696 693.185 205.504C693.185 205.301 693.18 205.104 693.169 204.912C693.158 204.635 693.148 204.368 693.137 204.112C693.137 203.856 693.126 203.605 693.105 203.36C693.105 203.264 693.1 203.168 693.089 203.072C693.089 202.976 693.089 202.88 693.089 202.784C693.089 202.677 693.084 202.581 693.073 202.496C693.073 202.389 693.068 202.288 693.057 202.192C693.057 202.085 693.052 201.984 693.041 201.888C693.041 201.781 693.036 201.68 693.025 201.584C693.004 201.051 692.977 200.507 692.945 199.952C692.924 199.387 692.897 198.795 692.865 198.176C692.833 197.525 692.678 197.013 692.401 196.64C692.134 196.267 691.798 195.973 691.393 195.76C690.988 195.536 690.556 195.339 690.097 195.168C689.649 194.997 689.228 194.795 688.833 194.56C688.438 194.325 688.113 194.005 687.857 193.6C687.612 193.184 687.489 192.629 687.489 191.936C687.489 191.349 687.58 190.869 687.761 190.496C687.942 190.112 688.23 189.829 688.625 189.648C689.03 189.467 689.569 189.376 690.241 189.376C690.145 190.496 690.177 191.259 690.337 191.664C690.508 192.059 690.753 192.256 691.073 192.256C691.425 192.256 691.692 192.075 691.873 191.712C692.054 191.339 692.15 190.571 692.161 189.408C692.449 189.408 692.748 189.408 693.057 189.408C693.366 189.408 693.665 189.408 693.953 189.408C693.921 190.357 693.921 191.088 693.953 191.6C693.996 192.101 694.086 192.448 694.225 192.64C694.364 192.832 694.561 192.928 694.817 192.928C695.041 192.928 695.233 192.837 695.393 192.656C695.564 192.464 695.692 192.117 695.777 191.616C695.862 191.115 695.905 190.389 695.905 189.44C697.334 189.44 698.486 189.456 699.361 189.488C700.236 189.509 700.897 189.563 701.345 189.648C701.804 189.723 702.108 189.851 702.257 190.032C702.417 190.203 702.497 190.443 702.497 190.752C702.497 191.083 702.358 191.333 702.081 191.504C701.814 191.664 701.462 191.787 701.025 191.872C700.598 191.947 700.14 192.021 699.649 192.096C699.169 192.16 698.705 192.261 698.257 192.4C697.82 192.528 697.452 192.731 697.153 193.008C696.865 193.285 696.705 193.68 696.673 194.192C696.481 197.04 696.332 199.435 696.225 201.376C696.118 203.307 696.028 204.885 695.953 206.112C695.889 207.328 695.83 208.272 695.777 208.944C695.724 209.616 695.66 210.107 695.585 210.416C695.51 210.715 695.414 210.923 695.297 211.04C695.233 211.115 695.137 211.179 695.009 211.232C694.892 211.275 694.774 211.296 694.657 211.296ZM699.457 197.248C698.998 197.248 698.588 197.093 698.225 196.784C697.873 196.475 697.697 196.032 697.697 195.456C697.697 194.859 697.857 194.379 698.177 194.016C698.497 193.653 698.998 193.472 699.681 193.472C700.214 193.472 700.646 193.648 700.977 194C701.308 194.341 701.473 194.752 701.473 195.232C701.473 195.936 701.308 196.448 700.977 196.768C700.657 197.088 700.15 197.248 699.457 197.248ZM695.233 207.68L695.137 205.376C696.406 205.323 697.382 205.301 698.065 205.312C698.748 205.323 699.217 205.403 699.473 205.552C699.74 205.701 699.873 205.952 699.873 206.304C699.873 206.731 699.745 207.035 699.489 207.216C699.244 207.387 698.785 207.499 698.113 207.552C697.452 207.595 696.492 207.637 695.233 207.68ZM693.953 198.976L693.921 201.408C692.545 201.397 691.484 201.371 690.737 201.328C689.99 201.285 689.468 201.173 689.169 200.992C688.881 200.8 688.737 200.491 688.737 200.064C688.737 199.627 688.902 199.328 689.233 199.168C689.574 198.997 690.129 198.912 690.897 198.912C691.665 198.901 692.684 198.923 693.953 198.976ZM711.852 210.176C711.809 208.384 711.777 206.56 711.756 204.704C711.734 202.837 711.713 200.992 711.692 199.168C712.62 199.232 713.276 199.184 713.66 199.024C714.054 198.864 714.252 198.592 714.252 198.208C714.252 197.952 714.172 197.749 714.012 197.6C713.852 197.44 713.58 197.333 713.196 197.28C712.822 197.216 712.31 197.195 711.66 197.216C711.66 196.96 711.66 196.699 711.66 196.432C711.66 196.165 711.66 195.904 711.66 195.648C713.089 195.68 714.033 195.595 714.492 195.392C714.95 195.189 715.18 194.891 715.18 194.496C715.18 194.219 715.073 194.005 714.86 193.856C714.657 193.707 714.3 193.616 713.788 193.584C713.276 193.541 712.572 193.547 711.676 193.6C711.665 193.525 711.66 193.461 711.66 193.408C711.66 193.344 711.66 193.28 711.66 193.216C711.66 192.043 711.894 191.173 712.364 190.608C712.833 190.032 713.644 189.749 714.796 189.76C715.777 189.76 716.502 190.08 716.972 190.72C717.441 191.36 717.633 192.288 717.548 193.504C717.484 194.56 717.393 195.611 717.276 196.656C717.158 197.701 717.068 198.763 717.004 199.84C716.993 200.139 717.03 200.357 717.116 200.496C717.201 200.624 717.388 200.715 717.676 200.768C718.476 200.896 719.276 200.992 720.076 201.056C720.886 201.12 721.708 201.173 722.54 201.216C722.817 201.227 723.004 201.195 723.1 201.12C723.206 201.045 723.265 200.843 723.276 200.512C723.361 198.891 723.43 197.296 723.484 195.728C723.548 194.16 723.617 192.651 723.692 191.2C723.724 190.635 723.841 190.192 724.044 189.872C724.246 189.541 724.577 189.376 725.036 189.376C725.516 189.376 725.846 189.541 726.028 189.872C726.22 190.203 726.316 190.699 726.316 191.36C726.337 194.592 726.332 197.883 726.3 201.232C726.268 204.581 726.209 207.936 726.124 211.296C726.113 211.936 725.98 212.437 725.724 212.8C725.478 213.163 725.057 213.344 724.46 213.344C723.852 213.344 723.414 213.141 723.148 212.736C722.881 212.341 722.753 211.819 722.764 211.168C722.796 210.048 722.849 208.944 722.924 207.856C722.998 206.768 723.052 205.675 723.084 204.576C723.094 204.352 723.057 204.187 722.972 204.08C722.897 203.963 722.764 203.888 722.572 203.856C722.444 203.835 722.321 203.819 722.204 203.808C722.086 203.787 721.964 203.771 721.836 203.76C721.729 203.749 721.617 203.739 721.5 203.728C721.393 203.717 721.281 203.707 721.164 203.696C721.046 203.685 720.929 203.675 720.812 203.664C720.716 203.653 720.62 203.643 720.524 203.632C720.438 203.621 720.348 203.611 720.252 203.6C720.166 203.589 720.076 203.584 719.98 203.584C719.777 203.563 719.574 203.547 719.372 203.536C719.18 203.515 718.977 203.499 718.764 203.488C718.636 203.477 718.508 203.467 718.38 203.456C718.252 203.435 718.129 203.424 718.012 203.424C717.905 203.413 717.793 203.403 717.676 203.392C717.548 203.381 717.42 203.371 717.292 203.36C717.164 203.349 717.036 203.339 716.908 203.328C716.801 203.317 716.684 203.312 716.556 203.312C716.438 203.312 716.321 203.307 716.204 203.296C715.937 203.275 715.708 203.328 715.516 203.456C715.324 203.584 715.212 203.787 715.18 204.064C715.084 205.12 714.998 206.197 714.924 207.296C714.849 208.384 714.753 209.419 714.636 210.4C714.593 210.827 714.454 211.2 714.22 211.52C713.985 211.84 713.644 212 713.196 212C712.716 212 712.374 211.835 712.172 211.504C711.98 211.163 711.873 210.72 711.852 210.176ZM715.596 202.432C715.361 202.432 715.18 202.363 715.052 202.224C714.924 202.085 714.86 201.856 714.86 201.536C714.86 201.355 714.934 201.195 715.084 201.056C715.244 200.907 715.457 200.832 715.724 200.832C715.937 200.832 716.113 200.912 716.252 201.072C716.39 201.232 716.46 201.419 716.46 201.632C716.46 201.867 716.374 202.059 716.204 202.208C716.044 202.357 715.841 202.432 715.596 202.432ZM726.988 196.384C727.521 196.416 727.937 196.517 728.236 196.688C728.534 196.848 728.684 197.12 728.684 197.504C728.684 197.856 728.524 198.096 728.204 198.224C727.884 198.352 727.457 198.443 726.924 198.496C726.337 198.528 725.633 198.56 724.812 198.592C724.001 198.613 723.18 198.624 722.348 198.624C721.633 198.624 721.126 198.528 720.828 198.336C720.54 198.133 720.396 197.835 720.396 197.44C720.396 197.035 720.566 196.747 720.908 196.576C721.26 196.405 721.75 196.32 722.38 196.32C723.18 196.32 723.953 196.325 724.7 196.336C725.457 196.336 726.22 196.352 726.988 196.384ZM719.244 210.432C718.657 210.432 718.177 210.251 717.804 209.888C717.441 209.515 717.26 209.003 717.26 208.352C717.26 207.915 717.409 207.536 717.708 207.216C718.006 206.885 718.508 206.72 719.212 206.72C719.745 206.72 720.172 206.875 720.492 207.184C720.812 207.483 720.972 207.979 720.972 208.672C720.972 209.163 720.796 209.579 720.444 209.92C720.092 210.261 719.692 210.432 719.244 210.432ZM726.668 191.712C727.361 191.755 727.873 191.867 728.204 192.048C728.545 192.229 728.716 192.512 728.716 192.896C728.716 193.323 728.518 193.605 728.124 193.744C727.74 193.872 727.212 193.92 726.54 193.888C725.825 193.856 725.105 193.813 724.38 193.76C723.665 193.696 722.945 193.632 722.22 193.568C721.569 193.504 721.094 193.387 720.796 193.216C720.508 193.035 720.364 192.779 720.364 192.448C720.364 192.096 720.524 191.851 720.844 191.712C721.164 191.563 721.676 191.499 722.38 191.52C723.105 191.531 723.82 191.552 724.524 191.584C725.238 191.616 725.953 191.659 726.668 191.712ZM739.064 212.352C737.134 212.352 735.512 211.915 734.2 211.04C732.899 210.155 731.918 208.928 731.256 207.36C730.595 205.792 730.264 203.979 730.264 201.92C730.264 199.381 730.67 197.173 731.48 195.296C732.302 193.408 733.443 191.947 734.904 190.912C736.366 189.867 738.062 189.344 739.992 189.344C741.347 189.344 742.542 189.595 743.576 190.096C744.611 190.597 745.48 191.333 746.184 192.304C746.899 193.264 747.432 194.432 747.784 195.808C748.147 197.173 748.323 198.731 748.312 200.48C748.302 203.083 747.902 205.264 747.112 207.024C746.334 208.784 745.251 210.112 743.864 211.008C742.478 211.904 740.878 212.352 739.064 212.352ZM740.856 207.904C741.848 207.904 742.712 207.632 743.448 207.088C744.195 206.544 744.771 205.723 745.176 204.624C745.582 203.515 745.784 202.123 745.784 200.448C745.784 198.656 745.576 197.093 745.16 195.76C744.744 194.427 744.136 193.392 743.336 192.656C742.536 191.92 741.56 191.552 740.408 191.552C739.512 191.552 738.702 191.813 737.976 192.336C737.251 192.859 736.675 193.659 736.248 194.736C735.822 195.803 735.608 197.152 735.608 198.784C735.608 200.608 735.816 202.203 736.232 203.568C736.659 204.933 737.262 206 738.04 206.768C738.83 207.525 739.768 207.904 740.856 207.904ZM736.632 207.936C736.238 207.936 735.944 208.043 735.752 208.256C735.571 208.459 735.48 208.832 735.48 209.376C735.48 209.696 735.592 209.952 735.816 210.144C736.051 210.336 736.398 210.432 736.856 210.432C737.208 210.432 737.48 210.336 737.672 210.144C737.875 209.941 737.976 209.643 737.976 209.248C737.976 208.768 737.87 208.432 737.656 208.24C737.454 208.037 737.112 207.936 736.632 207.936ZM733.976 204.48C733.55 204.48 733.224 204.603 733 204.848C732.776 205.083 732.664 205.387 732.664 205.76C732.664 206.272 732.792 206.656 733.048 206.912C733.315 207.168 733.646 207.296 734.04 207.296C734.488 207.296 734.84 207.184 735.096 206.96C735.352 206.725 735.48 206.432 735.48 206.08C735.48 205.536 735.342 205.136 735.064 204.88C734.787 204.613 734.424 204.48 733.976 204.48ZM733.208 200.288C732.76 200.288 732.44 200.4 732.248 200.624C732.056 200.837 731.96 201.195 731.96 201.696C731.96 201.984 732.062 202.235 732.264 202.448C732.478 202.651 732.824 202.752 733.304 202.752C733.624 202.752 733.891 202.656 734.104 202.464C734.318 202.272 734.424 201.963 734.424 201.536C734.424 201.067 734.318 200.741 734.104 200.56C733.891 200.379 733.592 200.288 733.208 200.288ZM743.64 191.808C743.438 192.203 743.219 192.603 742.984 193.008C742.75 193.403 742.51 193.803 742.264 194.208C741.838 194.912 741.475 195.371 741.176 195.584C740.888 195.787 740.59 195.819 740.28 195.68C739.95 195.509 739.8 195.232 739.832 194.848C739.864 194.453 740.088 193.867 740.504 193.088C740.728 192.672 740.963 192.256 741.208 191.84C741.464 191.424 741.72 191.019 741.976 190.624C742.094 190.432 742.27 190.325 742.504 190.304C742.739 190.272 742.958 190.304 743.16 190.4C743.406 190.507 743.592 190.683 743.72 190.928C743.848 191.173 743.822 191.467 743.64 191.808ZM738.856 190.656C738.878 190.699 738.894 190.747 738.904 190.8C738.926 190.843 738.942 190.891 738.952 190.944C739.006 191.147 738.968 191.323 738.84 191.472C738.723 191.611 738.584 191.712 738.424 191.776C738.232 191.84 738.019 191.883 737.784 191.904C737.55 191.915 737.395 191.845 737.32 191.696C737.278 191.611 737.235 191.531 737.192 191.456C737.16 191.371 737.128 191.291 737.096 191.216C737.032 191.067 737.08 190.917 737.24 190.768C737.411 190.608 737.592 190.496 737.784 190.432C737.998 190.368 738.211 190.347 738.424 190.368C738.648 190.379 738.792 190.475 738.856 190.656ZM743.672 202.368C744.174 202.517 744.686 202.677 745.208 202.848C745.742 203.019 746.264 203.2 746.776 203.392C747.032 203.488 747.203 203.637 747.288 203.84C747.384 204.043 747.406 204.256 747.352 204.48C747.31 204.715 747.182 204.923 746.968 205.104C746.755 205.275 746.488 205.323 746.168 205.248C745.656 205.12 745.139 204.987 744.616 204.848C744.104 204.699 743.598 204.544 743.096 204.384C741.976 204.032 741.283 203.723 741.016 203.456C740.75 203.179 740.654 202.891 740.728 202.592C740.814 202.251 741.048 202.043 741.432 201.968C741.827 201.883 742.574 202.016 743.672 202.368ZM731.384 197.696C731.438 197.675 731.491 197.659 731.544 197.648C731.608 197.627 731.662 197.611 731.704 197.6C731.779 197.579 731.838 197.573 731.88 197.584C731.934 197.595 731.976 197.621 732.008 197.664C732.051 197.696 732.088 197.739 732.12 197.792C732.163 197.867 732.184 197.936 732.184 198C732.195 198.053 732.184 198.107 732.152 198.16C732.131 198.203 732.088 198.24 732.024 198.272C731.982 198.283 731.934 198.304 731.88 198.336C731.838 198.357 731.79 198.379 731.736 198.4C731.662 198.432 731.592 198.416 731.528 198.352C731.464 198.288 731.406 198.208 731.352 198.112C731.32 198.016 731.304 197.925 731.304 197.84C731.315 197.755 731.342 197.707 731.384 197.696ZM745.88 196.48C746.2 196.384 746.488 196.379 746.744 196.464C747 196.549 747.182 196.779 747.288 197.152C747.406 197.515 747.406 197.803 747.288 198.016C747.171 198.229 746.936 198.4 746.584 198.528C746.36 198.624 746.12 198.72 745.864 198.816C745.608 198.901 745.24 199.008 744.76 199.136C743.854 199.36 743.214 199.456 742.84 199.424C742.467 199.392 742.222 199.211 742.104 198.88C741.976 198.496 742.056 198.171 742.344 197.904C742.632 197.627 743.214 197.344 744.088 197.056C744.462 196.928 744.776 196.821 745.032 196.736C745.299 196.64 745.582 196.555 745.88 196.48ZM744.856 207.616C744.92 207.691 744.979 207.765 745.032 207.84C745.096 207.904 745.155 207.979 745.208 208.064C745.326 208.203 745.39 208.389 745.4 208.624C745.411 208.848 745.262 209.099 744.952 209.376C744.632 209.675 744.35 209.787 744.104 209.712C743.859 209.637 743.662 209.515 743.512 209.344C743.438 209.227 743.374 209.136 743.32 209.072C743.278 208.997 743.224 208.917 743.16 208.832C743.022 208.608 742.974 208.373 743.016 208.128C743.07 207.883 743.224 207.659 743.48 207.456C743.736 207.243 743.992 207.168 744.248 207.232C744.515 207.296 744.718 207.424 744.856 207.616ZM750.954 206.496C750.975 206.08 751.002 205.659 751.034 205.232C751.066 204.795 751.103 204.363 751.146 203.936C751.935 203.968 752.586 203.963 753.098 203.92C753.61 203.867 753.989 203.76 754.234 203.6C754.479 203.429 754.602 203.189 754.602 202.88C754.602 202.432 754.314 202.149 753.738 202.032C753.162 201.904 752.351 201.835 751.306 201.824C751.327 201.44 751.359 201.061 751.402 200.688C751.445 200.315 751.487 199.936 751.53 199.552C752.501 199.787 753.274 199.888 753.85 199.856C754.437 199.824 754.73 199.483 754.73 198.832C754.73 198.469 754.506 198.203 754.058 198.032C753.61 197.851 752.831 197.707 751.722 197.6C751.807 196.939 751.887 196.277 751.962 195.616C752.047 194.955 752.138 194.283 752.234 193.6C752.426 192.192 752.858 191.163 753.53 190.512C754.202 189.861 755.103 189.536 756.234 189.536C757.29 189.536 758.069 189.787 758.57 190.288C759.082 190.779 759.466 191.424 759.722 192.224C759.797 192.448 759.866 192.672 759.93 192.896C760.005 193.109 760.074 193.323 760.138 193.536C760.191 193.685 760.239 193.84 760.282 194C760.335 194.149 760.383 194.299 760.426 194.448C760.469 194.587 760.511 194.731 760.554 194.88C760.597 195.019 760.639 195.163 760.682 195.312C760.735 195.504 760.794 195.696 760.858 195.888C760.922 196.08 760.981 196.277 761.034 196.48C761.077 196.619 761.114 196.757 761.146 196.896C761.189 197.024 761.231 197.157 761.274 197.296C761.327 197.435 761.375 197.573 761.418 197.712C761.461 197.851 761.503 197.995 761.546 198.144C761.674 198.581 761.807 199.029 761.946 199.488C762.095 199.947 762.25 200.427 762.41 200.928C762.517 201.269 762.719 201.44 763.018 201.44C763.295 201.44 763.498 201.237 763.626 200.832C763.946 199.84 764.239 198.832 764.506 197.808C764.773 196.784 765.05 195.739 765.338 194.672C765.626 193.595 765.962 192.491 766.346 191.36C766.57 190.688 766.858 190.181 767.21 189.84C767.562 189.488 768.031 189.312 768.618 189.312C769.311 189.312 769.813 189.552 770.122 190.032C770.442 190.501 770.655 191.115 770.762 191.872C771.199 194.827 771.594 197.888 771.946 201.056C772.298 204.213 772.607 207.339 772.874 210.432C772.927 210.955 772.863 211.387 772.682 211.728C772.501 212.059 772.191 212.224 771.754 212.224C771.338 212.224 771.013 212.085 770.778 211.808C770.554 211.531 770.378 211.104 770.25 210.528C769.919 208.928 769.621 207.344 769.354 205.776C769.087 204.208 768.81 202.795 768.522 201.536C768.426 201.088 768.234 200.837 767.946 200.784C767.669 200.731 767.359 200.875 767.018 201.216C766.538 201.707 766.106 202.208 765.722 202.72C765.338 203.232 764.906 203.744 764.426 204.256C764.074 204.64 763.733 204.907 763.402 205.056C763.071 205.205 762.741 205.28 762.41 205.28C762.026 205.28 761.669 205.157 761.338 204.912C761.018 204.656 760.746 204.256 760.522 203.712C759.978 202.411 759.461 201.008 758.97 199.504C758.479 198 757.962 196.555 757.418 195.168C757.247 194.731 757.029 194.555 756.762 194.64C756.495 194.715 756.351 194.944 756.33 195.328C756.287 196.576 756.277 197.76 756.298 198.88C756.33 200 756.362 201.205 756.394 202.496C756.426 203.776 756.437 205.28 756.426 207.008C756.415 208.011 756.197 208.805 755.77 209.392C755.354 209.979 754.591 210.272 753.482 210.272C752.757 210.272 752.207 210.112 751.834 209.792C751.461 209.472 751.21 209.029 751.082 208.464C750.965 207.888 750.922 207.232 750.954 206.496ZM768.202 198.272C768.607 198.272 768.943 198.149 769.21 197.904C769.477 197.648 769.61 197.323 769.61 196.928C769.61 196.363 769.487 195.963 769.242 195.728C769.007 195.483 768.714 195.36 768.362 195.36C767.775 195.36 767.349 195.504 767.082 195.792C766.826 196.069 766.698 196.448 766.698 196.928C766.698 197.323 766.842 197.648 767.13 197.904C767.418 198.149 767.775 198.272 768.202 198.272ZM762.922 204.224C762.527 204.224 762.245 204.144 762.074 203.984C761.914 203.824 761.834 203.616 761.834 203.36C761.834 202.976 761.919 202.693 762.09 202.512C762.261 202.331 762.538 202.24 762.922 202.24C763.199 202.24 763.418 202.325 763.578 202.496C763.738 202.656 763.818 202.923 763.818 203.296C763.818 203.616 763.738 203.851 763.578 204C763.418 204.149 763.199 204.224 762.922 204.224ZM770.666 208.96C770.25 209.024 769.797 209.077 769.306 209.12C768.826 209.163 768.33 209.195 767.818 209.216C767.018 209.248 766.399 209.189 765.962 209.04C765.535 208.891 765.322 208.576 765.322 208.096C765.322 207.659 765.514 207.36 765.898 207.2C766.293 207.029 766.954 206.891 767.882 206.784C768.266 206.752 768.639 206.725 769.002 206.704C769.365 206.672 769.802 206.656 770.314 206.656C770.762 206.656 771.141 206.725 771.45 206.864C771.759 206.992 771.914 207.275 771.914 207.712C771.914 208.128 771.802 208.427 771.578 208.608C771.354 208.779 771.05 208.896 770.666 208.96ZM776.333 209.568C776.333 207.915 776.343 206.347 776.365 204.864C776.397 203.381 776.429 201.835 776.461 200.224C777.474 200.224 778.237 200.187 778.749 200.112C779.261 200.037 779.602 199.915 779.773 199.744C779.943 199.573 780.023 199.349 780.013 199.072C780.002 198.816 779.917 198.613 779.757 198.464C779.607 198.315 779.282 198.219 778.781 198.176C778.29 198.123 777.538 198.123 776.525 198.176C776.525 197.92 776.525 197.605 776.525 197.232C776.535 196.848 776.546 196.523 776.557 196.256C777.73 196.203 778.477 196.091 778.797 195.92C779.117 195.739 779.277 195.467 779.277 195.104C779.277 194.72 779.111 194.437 778.781 194.256C778.45 194.075 777.709 193.995 776.557 194.016C776.557 193.835 776.562 193.621 776.573 193.376C776.594 193.131 776.61 192.843 776.621 192.512C776.653 191.616 776.919 191.003 777.421 190.672C777.922 190.331 778.594 190.123 779.437 190.048C780.077 189.995 780.717 189.941 781.357 189.888C781.997 189.835 782.631 189.792 783.261 189.76C783.89 189.717 784.503 189.685 785.101 189.664C785.709 189.643 786.295 189.632 786.861 189.632C787.714 189.632 788.322 189.755 788.685 190C789.047 190.245 789.229 190.635 789.229 191.168C789.229 191.509 789.175 191.792 789.069 192.016C788.962 192.229 788.797 192.389 788.573 192.496C788.359 192.592 788.087 192.64 787.757 192.64C787.725 192.64 787.682 192.64 787.629 192.64C787.586 192.64 787.538 192.64 787.485 192.64C787.431 192.64 787.378 192.64 787.325 192.64C787.186 192.629 787.047 192.624 786.909 192.624C786.781 192.624 786.669 192.619 786.573 192.608C786.253 192.587 785.911 192.571 785.549 192.56C785.197 192.549 784.85 192.539 784.509 192.528C784.434 192.528 784.359 192.528 784.285 192.528C784.21 192.517 784.13 192.512 784.045 192.512C783.97 192.512 783.895 192.512 783.821 192.512C783.746 192.501 783.671 192.496 783.597 192.496C783.533 192.496 783.469 192.496 783.405 192.496C783.266 192.485 783.133 192.48 783.005 192.48C782.887 192.48 782.775 192.48 782.669 192.48C782.285 192.48 782.029 192.565 781.901 192.736C781.773 192.907 781.73 193.291 781.773 193.888C781.837 194.763 781.917 195.557 782.013 196.272C782.109 196.987 782.221 197.771 782.349 198.624C782.413 199.04 782.509 199.323 782.637 199.472C782.775 199.621 783.01 199.68 783.341 199.648C783.81 199.595 784.29 199.536 784.781 199.472C785.282 199.397 785.709 199.339 786.061 199.296C786.477 199.243 786.786 199.355 786.989 199.632C787.202 199.909 787.309 200.235 787.309 200.608C787.309 200.96 787.207 201.296 787.005 201.616C786.802 201.925 786.498 202.091 786.093 202.112C785.858 202.123 785.613 202.133 785.357 202.144C785.101 202.155 784.834 202.165 784.557 202.176C784.439 202.187 784.322 202.192 784.205 202.192C784.098 202.192 783.986 202.197 783.869 202.208C783.762 202.208 783.65 202.213 783.533 202.224C783.426 202.224 783.319 202.224 783.213 202.224C783.01 202.235 782.807 202.245 782.605 202.256C782.413 202.256 782.215 202.261 782.013 202.272C781.949 202.272 781.879 202.272 781.805 202.272C781.741 202.272 781.671 202.277 781.597 202.288C781.533 202.288 781.463 202.288 781.389 202.288C781.325 202.288 781.261 202.293 781.197 202.304C781.133 202.304 781.063 202.304 780.989 202.304C780.925 202.304 780.861 202.309 780.797 202.32C780.626 202.331 780.455 202.341 780.285 202.352C780.125 202.363 779.97 202.368 779.821 202.368C779.586 202.379 779.394 202.469 779.245 202.64C779.106 202.811 779.074 203.115 779.149 203.552C779.298 204.331 779.469 205.104 779.661 205.872C779.853 206.629 780.066 207.403 780.301 208.192C780.429 208.619 780.583 208.896 780.765 209.024C780.946 209.141 781.197 209.184 781.517 209.152C782.594 209.035 783.666 208.907 784.733 208.768C785.81 208.629 786.914 208.512 788.045 208.416C788.535 208.373 788.898 208.523 789.133 208.864C789.378 209.205 789.501 209.579 789.501 209.984C789.501 210.347 789.399 210.683 789.197 210.992C789.005 211.301 788.706 211.467 788.301 211.488C786.658 211.552 785.005 211.579 783.341 211.568C781.687 211.557 780.034 211.552 778.381 211.552C777.645 211.552 777.117 211.376 776.797 211.024C776.487 210.672 776.333 210.187 776.333 209.568ZM780.685 210.496L782.765 210.528C782.807 211.733 782.802 212.629 782.749 213.216C782.706 213.813 782.599 214.208 782.429 214.4C782.269 214.592 782.039 214.688 781.741 214.688C781.431 214.688 781.197 214.587 781.037 214.384C780.887 214.192 780.786 213.797 780.733 213.2C780.69 212.603 780.674 211.701 780.685 210.496ZM785.581 214.208C785.538 213.632 785.501 213.045 785.469 212.448C785.437 211.861 785.41 211.275 785.389 210.688C785.378 210.016 785.447 209.557 785.597 209.312C785.757 209.056 786.029 208.928 786.413 208.928C786.754 208.928 787.005 209.045 787.165 209.28C787.335 209.504 787.437 209.888 787.469 210.432C787.501 211.04 787.527 211.643 787.549 212.24C787.57 212.837 787.586 213.44 787.597 214.048C787.618 214.592 787.538 214.987 787.357 215.232C787.186 215.488 786.946 215.616 786.637 215.616C786.317 215.616 786.071 215.509 785.901 215.296C785.741 215.093 785.634 214.731 785.581 214.208ZM786.285 206.976C785.719 206.976 785.282 206.821 784.973 206.512C784.674 206.203 784.525 205.76 784.525 205.184C784.525 204.608 784.669 204.187 784.957 203.92C785.255 203.653 785.666 203.52 786.189 203.52C786.754 203.52 787.191 203.664 787.501 203.952C787.821 204.24 787.981 204.619 787.981 205.088C787.981 205.728 787.821 206.203 787.501 206.512C787.191 206.821 786.786 206.976 786.285 206.976ZM784.205 190.784C784.205 190.571 784.306 190.384 784.509 190.224C784.711 190.064 784.941 189.984 785.197 189.984C785.474 189.984 785.73 190.016 785.965 190.08C786.21 190.133 786.338 190.283 786.349 190.528C786.37 190.635 786.386 190.747 786.397 190.864C786.407 190.971 786.413 191.072 786.413 191.168C786.413 191.403 786.317 191.605 786.125 191.776C785.933 191.947 785.698 192.032 785.421 192.032C785.165 192.032 784.914 191.989 784.669 191.904C784.434 191.808 784.301 191.627 784.269 191.36C784.258 191.264 784.242 191.168 784.221 191.072C784.21 190.976 784.205 190.88 784.205 190.784ZM779.853 191.84L779.565 193.888C779.181 193.835 778.882 193.739 778.669 193.6C778.455 193.451 778.349 193.195 778.349 192.832C778.349 192.384 778.482 192.107 778.749 192C779.026 191.893 779.394 191.84 779.853 191.84Z"
      fill="black" />
    <rect width="480" height="270" transform="translate(0.5 271.5)" fill="white" />
    <path
      d="M25.9386 323.908C23.7643 323.908 21.8279 323.534 20.1293 322.787C18.4403 322.029 17.1057 320.991 16.1254 319.671C15.1547 318.341 14.6548 316.807 14.6257 315.07H20.9737C21.0125 315.798 21.2504 316.439 21.6871 316.992C22.1336 317.535 22.7257 317.958 23.4634 318.259C24.2011 318.559 25.031 318.71 25.9531 318.71C26.9141 318.71 27.7634 318.54 28.5011 318.2C29.2388 317.861 29.8163 317.39 30.2337 316.788C30.651 316.186 30.8597 315.492 30.8597 314.706C30.8597 313.91 30.6365 313.206 30.19 312.595C29.7532 311.974 29.1223 311.488 28.2972 311.139C27.4819 310.789 26.5112 310.615 25.3853 310.615H22.6044V305.985H25.3853C26.3365 305.985 27.1761 305.82 27.9041 305.49C28.6418 305.16 29.2145 304.703 29.6222 304.121C30.0298 303.529 30.2337 302.84 30.2337 302.054C30.2337 301.306 30.0541 300.651 29.695 300.088C29.3455 299.515 28.8505 299.069 28.2099 298.749C27.579 298.428 26.8413 298.268 25.9968 298.268C25.1426 298.268 24.3613 298.423 23.6527 298.734C22.9441 299.035 22.3763 299.467 21.9492 300.03C21.5221 300.593 21.294 301.253 21.2649 302.01H15.2227C15.2518 300.292 15.742 298.778 16.6932 297.467C17.6444 296.157 18.9257 295.133 20.5369 294.395C22.1579 293.648 23.9876 293.274 26.0259 293.274C28.0837 293.274 29.8842 293.648 31.4276 294.395C32.9709 295.143 34.1696 296.152 35.0238 297.424C35.8877 298.685 36.3148 300.103 36.305 301.675C36.3148 303.345 35.7955 304.737 34.7472 305.854C33.7086 306.97 32.3545 307.679 30.685 307.979V308.212C32.8787 308.494 34.5482 309.256 35.6935 310.498C36.8486 311.731 37.4213 313.274 37.4116 315.128C37.4213 316.827 36.9311 318.336 35.9411 319.656C34.9607 320.976 33.6067 322.015 31.8789 322.772C30.1512 323.529 28.171 323.908 25.9386 323.908Z"
      fill="black" />
    <path fill-rule="evenodd" clip-rule="evenodd"
      d="M246.195 328.862C242.778 326.379 238.151 326.379 234.733 328.862L184.02 365.708C180.603 368.19 179.173 372.591 180.478 376.608L199.849 436.226C201.154 440.243 204.898 442.963 209.121 442.963H271.807C276.031 442.963 279.774 440.243 281.08 436.226L300.45 376.608C301.756 372.591 300.326 368.19 296.909 365.708L246.195 328.862ZM202.335 395.073C202.335 381.538 209.578 369.671 220.447 363.043L228.085 385.448H253.085L260.68 363.17C271.434 369.822 278.585 381.624 278.585 395.073C278.585 415.853 261.516 432.698 240.46 432.698C219.404 432.698 202.335 415.853 202.335 395.073Z"
      fill="#868686" />
    <path
      d="M234.594 350.948L239.887 356.241C240.277 356.632 240.91 356.632 241.301 356.241L246.594 350.948"
      stroke="black" stroke-width="7" stroke-linecap="round" />
    <mask id="path-18-inside-5_170_597" fill="white">
      <path
        d="M232.456 400.448C233.084 400.448 233.603 399.936 233.508 399.315C233.417 398.72 233.254 398.137 233.023 397.578C232.646 396.668 232.093 395.841 231.397 395.145C230.701 394.449 229.874 393.896 228.964 393.519C228.054 393.142 227.079 392.948 226.094 392.948C225.109 392.948 224.134 393.142 223.224 393.519C222.314 393.896 221.487 394.449 220.79 395.145C220.094 395.841 219.542 396.668 219.165 397.578C218.933 398.137 218.771 398.72 218.68 399.315C218.585 399.936 219.103 400.448 219.731 400.448V400.448C220.36 400.448 220.857 399.933 220.992 399.32C221.058 399.023 221.15 398.731 221.267 398.449C221.529 397.815 221.914 397.239 222.399 396.754C222.884 396.269 223.46 395.884 224.094 395.621C224.728 395.359 225.408 395.223 226.094 395.223C226.78 395.223 227.459 395.359 228.093 395.621C228.727 395.884 229.303 396.269 229.788 396.754C230.273 397.239 230.658 397.815 230.921 398.449C231.038 398.731 231.129 399.023 231.195 399.32C231.331 399.933 231.828 400.448 232.456 400.448V400.448Z" />
    </mask>
    <path
      d="M232.456 400.448C233.084 400.448 233.603 399.936 233.508 399.315C233.417 398.72 233.254 398.137 233.023 397.578C232.646 396.668 232.093 395.841 231.397 395.145C230.701 394.449 229.874 393.896 228.964 393.519C228.054 393.142 227.079 392.948 226.094 392.948C225.109 392.948 224.134 393.142 223.224 393.519C222.314 393.896 221.487 394.449 220.79 395.145C220.094 395.841 219.542 396.668 219.165 397.578C218.933 398.137 218.771 398.72 218.68 399.315C218.585 399.936 219.103 400.448 219.731 400.448V400.448C220.36 400.448 220.857 399.933 220.992 399.32C221.058 399.023 221.15 398.731 221.267 398.449C221.529 397.815 221.914 397.239 222.399 396.754C222.884 396.269 223.46 395.884 224.094 395.621C224.728 395.359 225.408 395.223 226.094 395.223C226.78 395.223 227.459 395.359 228.093 395.621C228.727 395.884 229.303 396.269 229.788 396.754C230.273 397.239 230.658 397.815 230.921 398.449C231.038 398.731 231.129 399.023 231.195 399.32C231.331 399.933 231.828 400.448 232.456 400.448V400.448Z"
      fill="black" stroke="black" stroke-width="0.5" mask="url(#path-18-inside-5_170_597)" />
    <mask id="path-19-inside-6_170_597" fill="white">
      <path
        d="M261.456 400.448C262.084 400.448 262.603 399.936 262.508 399.315C262.417 398.72 262.254 398.137 262.023 397.578C261.646 396.668 261.093 395.841 260.397 395.145C259.701 394.449 258.874 393.896 257.964 393.519C257.054 393.142 256.079 392.948 255.094 392.948C254.109 392.948 253.134 393.142 252.224 393.519C251.314 393.896 250.487 394.449 249.79 395.145C249.094 395.841 248.542 396.668 248.165 397.578C247.933 398.137 247.771 398.72 247.68 399.315C247.585 399.936 248.103 400.448 248.731 400.448V400.448C249.36 400.448 249.857 399.933 249.992 399.32C250.058 399.023 250.15 398.731 250.267 398.449C250.529 397.815 250.914 397.239 251.399 396.754C251.884 396.269 252.46 395.884 253.094 395.621C253.728 395.359 254.408 395.223 255.094 395.223C255.78 395.223 256.459 395.359 257.093 395.621C257.727 395.884 258.303 396.269 258.788 396.754C259.273 397.239 259.658 397.815 259.921 398.449C260.038 398.731 260.129 399.023 260.195 399.32C260.331 399.933 260.828 400.448 261.456 400.448V400.448Z" />
    </mask>
    <path
      d="M261.456 400.448C262.084 400.448 262.603 399.936 262.508 399.315C262.417 398.72 262.254 398.137 262.023 397.578C261.646 396.668 261.093 395.841 260.397 395.145C259.701 394.449 258.874 393.896 257.964 393.519C257.054 393.142 256.079 392.948 255.094 392.948C254.109 392.948 253.134 393.142 252.224 393.519C251.314 393.896 250.487 394.449 249.79 395.145C249.094 395.841 248.542 396.668 248.165 397.578C247.933 398.137 247.771 398.72 247.68 399.315C247.585 399.936 248.103 400.448 248.731 400.448V400.448C249.36 400.448 249.857 399.933 249.992 399.32C250.058 399.023 250.15 398.731 250.267 398.449C250.529 397.815 250.914 397.239 251.399 396.754C251.884 396.269 252.46 395.884 253.094 395.621C253.728 395.359 254.408 395.223 255.094 395.223C255.78 395.223 256.459 395.359 257.093 395.621C257.727 395.884 258.303 396.269 258.788 396.754C259.273 397.239 259.658 397.815 259.921 398.449C260.038 398.731 260.129 399.023 260.195 399.32C260.331 399.933 260.828 400.448 261.456 400.448V400.448Z"
      fill="black" stroke="black" stroke-width="0.5" mask="url(#path-19-inside-6_170_597)" />
    <path
      d="M239.514 414.567L236.264 411.317C235.713 410.766 236.103 409.823 236.882 409.823H244.304C245.084 409.823 245.474 410.766 244.923 411.317L241.673 414.567L241.569 414.671C241.264 414.975 241.093 415.389 241.093 415.82V417.327C241.093 417.758 241.264 418.171 241.569 418.476L241.672 418.579L244.813 421.825C245.077 422.099 245.07 422.534 244.796 422.799C244.525 423.061 244.093 423.055 243.828 422.786L241.751 420.676C241.115 420.03 240.072 420.03 239.435 420.676L237.355 422.79C237.086 423.063 236.65 423.08 236.361 422.827C236.045 422.551 236.029 422.065 236.325 421.768L239.514 418.58L239.514 418.58L239.617 418.476C239.922 418.171 240.093 417.758 240.093 417.327V415.82C240.093 415.389 239.922 414.975 239.617 414.671L239.514 414.567Z"
      fill="black" stroke="black" stroke-width="0.25" />
    <path
      d="M169.288 480.384C167.069 480.384 165.107 479.893 163.4 478.912C161.715 477.909 160.381 476.544 159.4 474.816C158.44 473.067 157.96 471.061 157.96 468.8C157.96 466.539 158.44 464.544 159.4 462.816C160.381 461.067 161.715 459.701 163.4 458.72C165.107 457.717 167.069 457.216 169.288 457.216C170.909 457.216 172.392 457.504 173.736 458.08C175.101 458.635 176.275 459.424 177.256 460.448C178.259 461.472 179.027 462.656 179.56 464L174.728 465.632C174.408 464.885 173.971 464.235 173.416 463.68C172.883 463.125 172.264 462.699 171.56 462.4C170.877 462.101 170.12 461.952 169.288 461.952C168.115 461.952 167.069 462.24 166.152 462.816C165.235 463.392 164.52 464.203 164.008 465.248C163.496 466.272 163.24 467.456 163.24 468.8C163.24 470.144 163.496 471.339 164.008 472.384C164.541 473.408 165.267 474.219 166.184 474.816C167.123 475.392 168.189 475.68 169.384 475.68C170.259 475.68 171.037 475.52 171.72 475.2C172.403 474.88 172.989 474.432 173.48 473.856C173.992 473.28 174.429 472.619 174.792 471.872L179.624 473.504C179.112 474.869 178.355 476.075 177.352 477.12C176.349 478.144 175.165 478.944 173.8 479.52C172.435 480.096 170.931 480.384 169.288 480.384ZM197.978 480L189.594 457.6H194.714L203.418 480H197.978ZM180.506 480L189.21 457.6H194.33L185.946 480H180.506ZM184.602 475.744V471.2H199.354V475.744H184.602ZM208.665 480V462.336H202.137V457.6H220.313V462.336H213.785V480H208.665ZM244.921 480V457.6H250.073V480H244.921ZM230.457 480V457.568H235.609V480H230.457ZM234.105 470.944V466.208H247.673V470.944H234.105ZM264.986 480.384C262.682 480.384 260.645 479.893 258.874 478.912C257.103 477.909 255.717 476.544 254.714 474.816C253.711 473.067 253.21 471.072 253.21 468.832C253.21 466.571 253.711 464.576 254.714 462.848C255.717 461.099 257.093 459.733 258.842 458.752C260.613 457.749 262.639 457.248 264.922 457.248C267.205 457.248 269.221 457.749 270.97 458.752C272.741 459.733 274.127 461.099 275.13 462.848C276.133 464.576 276.634 466.571 276.634 468.832C276.634 471.072 276.133 473.067 275.13 474.816C274.149 476.544 272.783 477.909 271.034 478.912C269.285 479.893 267.269 480.384 264.986 480.384ZM264.986 475.648C266.245 475.648 267.354 475.36 268.314 474.784C269.274 474.208 270.021 473.408 270.554 472.384C271.087 471.339 271.354 470.155 271.354 468.832C271.354 467.488 271.077 466.304 270.522 465.28C269.967 464.235 269.21 463.424 268.25 462.848C267.29 462.251 266.181 461.952 264.922 461.952C263.663 461.952 262.554 462.251 261.594 462.848C260.634 463.424 259.877 464.235 259.322 465.28C258.767 466.304 258.49 467.488 258.49 468.832C258.49 470.155 258.767 471.339 259.322 472.384C259.877 473.408 260.645 474.208 261.626 474.784C262.607 475.36 263.727 475.648 264.986 475.648ZM279.77 480V457.6H285.434L291.386 466.432L297.37 457.6H303.034V480H297.882V465.6L291.418 475.072L284.922 465.6V480H279.77ZM307.395 480V457.6H321.987V462.336H312.547V466.432H320.451V471.008H312.547V475.264H322.147V480H307.395Z"
      fill="black" />
    <rect width="480" height="270" transform="translate(481.5 271.5)" fill="white" />
    <path
      d="M495.716 318.259V313.294L508.164 293.682H512.445V300.554H509.911L502.064 312.973V313.206H519.754V318.259H495.716ZM510.028 323.5V316.744L510.144 314.546V293.682H516.055V323.5H510.028Z"
      fill="black" />
    <path fill-rule="evenodd" clip-rule="evenodd"
      d="M727.195 328.862C723.778 326.379 719.151 326.379 715.733 328.862L665.02 365.708C661.603 368.19 660.173 372.591 661.478 376.608L680.849 436.226C682.154 440.243 685.898 442.963 690.121 442.963H752.807C757.031 442.963 760.774 440.243 762.08 436.226L781.45 376.608C782.756 372.591 781.326 368.19 777.909 365.708L727.195 328.862ZM683.335 395.073C683.335 381.538 690.578 369.671 701.447 363.043L709.085 385.448H734.085L741.68 363.17C752.434 369.822 759.585 381.624 759.585 395.073C759.585 415.853 742.516 432.698 721.46 432.698C700.404 432.698 683.335 415.853 683.335 395.073Z"
      fill="#868686" />
    <path
      d="M715.594 350.948L720.887 356.241C721.277 356.632 721.91 356.632 722.301 356.241L727.594 350.948"
      stroke="black" stroke-width="7" stroke-linecap="round" />
    <mask id="path-25-inside-7_170_597" fill="white">
      <path
        d="M713.456 400.448C714.084 400.448 714.603 399.936 714.508 399.315C714.417 398.72 714.254 398.137 714.023 397.578C713.646 396.668 713.093 395.841 712.397 395.145C711.701 394.449 710.874 393.896 709.964 393.519C709.054 393.142 708.079 392.948 707.094 392.948C706.109 392.948 705.134 393.142 704.224 393.519C703.314 393.896 702.487 394.449 701.79 395.145C701.094 395.841 700.542 396.668 700.165 397.578C699.933 398.137 699.771 398.72 699.68 399.315C699.585 399.936 700.103 400.448 700.731 400.448V400.448C701.36 400.448 701.857 399.933 701.992 399.32C702.058 399.023 702.15 398.731 702.267 398.449C702.529 397.815 702.914 397.239 703.399 396.754C703.884 396.269 704.46 395.884 705.094 395.621C705.728 395.359 706.408 395.223 707.094 395.223C707.78 395.223 708.459 395.359 709.093 395.621C709.727 395.884 710.303 396.269 710.788 396.754C711.273 397.239 711.658 397.815 711.921 398.449C712.038 398.731 712.129 399.023 712.195 399.32C712.331 399.933 712.828 400.448 713.456 400.448V400.448Z" />
    </mask>
    <path
      d="M713.456 400.448C714.084 400.448 714.603 399.936 714.508 399.315C714.417 398.72 714.254 398.137 714.023 397.578C713.646 396.668 713.093 395.841 712.397 395.145C711.701 394.449 710.874 393.896 709.964 393.519C709.054 393.142 708.079 392.948 707.094 392.948C706.109 392.948 705.134 393.142 704.224 393.519C703.314 393.896 702.487 394.449 701.79 395.145C701.094 395.841 700.542 396.668 700.165 397.578C699.933 398.137 699.771 398.72 699.68 399.315C699.585 399.936 700.103 400.448 700.731 400.448V400.448C701.36 400.448 701.857 399.933 701.992 399.32C702.058 399.023 702.15 398.731 702.267 398.449C702.529 397.815 702.914 397.239 703.399 396.754C703.884 396.269 704.46 395.884 705.094 395.621C705.728 395.359 706.408 395.223 707.094 395.223C707.78 395.223 708.459 395.359 709.093 395.621C709.727 395.884 710.303 396.269 710.788 396.754C711.273 397.239 711.658 397.815 711.921 398.449C712.038 398.731 712.129 399.023 712.195 399.32C712.331 399.933 712.828 400.448 713.456 400.448V400.448Z"
      fill="black" stroke="black" stroke-width="0.5" mask="url(#path-25-inside-7_170_597)" />
    <mask id="path-26-inside-8_170_597" fill="white">
      <path
        d="M742.456 400.448C743.084 400.448 743.603 399.936 743.508 399.315C743.417 398.72 743.254 398.137 743.023 397.578C742.646 396.668 742.093 395.841 741.397 395.145C740.701 394.449 739.874 393.896 738.964 393.519C738.054 393.142 737.079 392.948 736.094 392.948C735.109 392.948 734.134 393.142 733.224 393.519C732.314 393.896 731.487 394.449 730.79 395.145C730.094 395.841 729.542 396.668 729.165 397.578C728.933 398.137 728.771 398.72 728.68 399.315C728.585 399.936 729.103 400.448 729.731 400.448V400.448C730.36 400.448 730.857 399.933 730.992 399.32C731.058 399.023 731.15 398.731 731.267 398.449C731.529 397.815 731.914 397.239 732.399 396.754C732.884 396.269 733.46 395.884 734.094 395.621C734.728 395.359 735.408 395.223 736.094 395.223C736.78 395.223 737.459 395.359 738.093 395.621C738.727 395.884 739.303 396.269 739.788 396.754C740.273 397.239 740.658 397.815 740.921 398.449C741.038 398.731 741.129 399.023 741.195 399.32C741.331 399.933 741.828 400.448 742.456 400.448V400.448Z" />
    </mask>
    <path
      d="M742.456 400.448C743.084 400.448 743.603 399.936 743.508 399.315C743.417 398.72 743.254 398.137 743.023 397.578C742.646 396.668 742.093 395.841 741.397 395.145C740.701 394.449 739.874 393.896 738.964 393.519C738.054 393.142 737.079 392.948 736.094 392.948C735.109 392.948 734.134 393.142 733.224 393.519C732.314 393.896 731.487 394.449 730.79 395.145C730.094 395.841 729.542 396.668 729.165 397.578C728.933 398.137 728.771 398.72 728.68 399.315C728.585 399.936 729.103 400.448 729.731 400.448V400.448C730.36 400.448 730.857 399.933 730.992 399.32C731.058 399.023 731.15 398.731 731.267 398.449C731.529 397.815 731.914 397.239 732.399 396.754C732.884 396.269 733.46 395.884 734.094 395.621C734.728 395.359 735.408 395.223 736.094 395.223C736.78 395.223 737.459 395.359 738.093 395.621C738.727 395.884 739.303 396.269 739.788 396.754C740.273 397.239 740.658 397.815 740.921 398.449C741.038 398.731 741.129 399.023 741.195 399.32C741.331 399.933 741.828 400.448 742.456 400.448V400.448Z"
      fill="black" stroke="black" stroke-width="0.5" mask="url(#path-26-inside-8_170_597)" />
    <path
      d="M720.514 414.567L717.264 411.317C716.713 410.766 717.103 409.823 717.882 409.823H725.304C726.084 409.823 726.474 410.766 725.923 411.317L722.673 414.567L722.569 414.671C722.264 414.975 722.093 415.389 722.093 415.82V417.327C722.093 417.758 722.264 418.171 722.569 418.476L722.672 418.579L725.813 421.825C726.077 422.099 726.07 422.534 725.796 422.799C725.525 423.061 725.093 423.055 724.828 422.786L722.751 420.676C722.115 420.03 721.072 420.03 720.435 420.676L718.355 422.79C718.086 423.063 717.65 423.08 717.361 422.827C717.045 422.551 717.029 422.065 717.325 421.768L720.514 418.58L720.514 418.58L720.617 418.476C720.922 418.171 721.093 417.758 721.093 417.327V415.82C721.093 415.389 720.922 414.975 720.617 414.671L720.514 414.567Z"
      fill="black" stroke="black" stroke-width="0.25" />
    <path
      d="M654.879 472.336C652.959 476.4 648.799 478.576 644.479 478.576C637.663 478.576 632.959 473.904 632.959 467.6C632.959 461.36 637.631 456.144 644.543 456.144C647.007 456.144 648.895 456.816 650.878 458.16C651.039 457.744 651.199 457.264 651.359 456.688H653.279L653.823 464.784H651.455C650.527 460.816 648.767 457.84 644.671 457.84C640.062 457.84 638.303 462.896 638.303 467.088C638.303 471.76 640.319 476.4 645.343 476.4C648.447 476.4 651.295 474.352 652.671 471.184L654.879 472.336ZM678.722 478H668.354V476.432C669.858 476.432 670.658 475.92 670.658 475.184C670.658 475.056 670.658 474.928 670.594 474.768L669.122 470.928H661.634L660.13 474.608C659.97 474.96 659.874 475.216 659.874 475.44C659.874 476.336 660.994 476.4 662.05 476.4H662.626V478H653.73V476.4C655.586 476.368 656.45 476.048 657.122 474.512L665.122 456.176H667.426L675.81 474.512C676.386 475.792 677.154 476.368 678.722 476.4V478ZM668.13 468.976L665.314 462.384L662.498 468.976H668.13ZM697.938 462.32H695.698C694.994 460.048 694.258 458.288 691.922 458.288H689.074V474.256C689.074 476.368 690.194 476.336 692.274 476.4V478H681.234V476.4C683.282 476.336 684.338 476.304 684.338 474.256V458.288H681.618C679.282 458.288 678.546 459.984 677.906 462.32H675.57L676.306 456.656H697.234L697.938 462.32ZM733.474 478H722.306V476.4C724.386 476.336 725.378 476.272 725.378 474.256V467.728H716.354V474.256C716.354 476.368 717.442 476.336 719.554 476.4V478H708.45V476.4C710.498 476.336 711.522 476.336 711.522 474.256V460.4C711.522 458.32 710.498 458.32 708.45 458.256V456.656H719.554V458.256C717.154 458.32 716.354 458.288 716.354 460.4V465.744H725.378V460.4C725.378 458.416 724.386 458.32 722.306 458.256V456.656H733.474V458.256C731.042 458.32 730.37 458.288 730.37 460.4V474.256C730.37 476.496 731.522 476.368 733.474 476.4V478ZM759.311 467.344C759.311 473.84 754.095 478.544 747.087 478.544C740.175 478.544 734.927 473.808 734.927 467.344C734.927 460.752 740.079 456.144 747.087 456.144C754.159 456.144 759.311 460.752 759.311 467.344ZM753.871 467.312C753.871 462.64 752.303 457.776 747.087 457.776C741.935 457.776 740.303 462.64 740.303 467.312C740.303 472.016 741.903 476.848 747.087 476.848C752.303 476.848 753.871 471.984 753.871 467.312ZM789.786 478H778.618V476.432C781.242 476.304 781.722 475.92 781.722 473.68V463.216L775.226 478H773.274L766.714 461.936V474.16C766.778 475.632 767.642 476.336 769.978 476.4V478H760.826V476.4C763.066 476.336 763.898 475.472 763.898 473.488V460.848C763.898 458.512 763.13 458.32 760.826 458.256V456.656H768.794L775.226 472.336L781.818 456.656H789.786V458.256C787.418 458.32 786.714 458.32 786.714 460.4V474.256C786.714 476.304 787.738 476.4 789.242 476.4H789.786V478ZM810.312 470.992L809.736 478H790.888V476.4C792.936 476.336 793.96 476.336 793.96 474.256V460.4C793.96 458.32 792.936 458.32 790.888 458.256V456.656H807.976L808.68 462.352H806.312C805.8 459.952 804.904 458.32 802.664 458.32H798.792V465.84H800.008C801.576 465.84 802.248 464.944 802.376 462.96H804.744V470.608H802.376C802.056 468.56 801.96 467.568 800.008 467.568H798.792V473.904C798.792 475.856 799.752 476.336 801.384 476.336C803.752 476.336 805.608 476.272 806.888 473.936C807.336 473.104 807.912 472.208 808.008 470.992H810.312Z"
      fill="black" />
  </g>
  <defs>
    <clipPath id="clip0_170_597">
      <rect width="961" height="541" fill="white" transform="translate(0.5 0.5)" />
    </clipPath>
  </defs>
</svg>